<?xml version="1.0" encoding="UTF-8" standalone="no"?>
<svg
   xmlns:dc="http://purl.org/dc/elements/1.1/"
   xmlns:cc="http://creativecommons.org/ns#"
   xmlns:rdf="http://www.w3.org/1999/02/22-rdf-syntax-ns#"
   xmlns:svg="http://www.w3.org/2000/svg"
   xmlns="http://www.w3.org/2000/svg"
   viewBox="0 0 500 392.72501"
   height="392.72501"
   width="500"
   xml:space="preserve"
   version="1.1"
   id="svg2"><metadata
     id="metadata8"><rdf:RDF><cc:Work
         rdf:about=""><dc:format>image/svg+xml</dc:format><dc:type
           rdf:resource="http://purl.org/dc/dcmitype/StillImage" /></cc:Work></rdf:RDF></metadata><defs
     id="defs6" /><g
     transform="matrix(1.25,0,0,-1.25,0,392.725)"
     id="g10"><g
       transform="scale(0.1,0.1)"
       id="g12"><path
         id="path14"
         style="fill:#ffffff;fill-opacity:1;fill-rule:nonzero;stroke:none"
         d="m 2934.42,1928.97 c -7.25,69.22 32.88,92.39 89.19,51.47 l 682.31,-495.73 c 56.31,-40.91 72.66,-122.95 36.33,-182.32 L 3174.73,374.941 c -36.33,-59.371 -71.99,-51.312 -79.24,17.911 L 2934.42,1928.97 Z m -2678.877,0.52 c -22.383,65.9 14.922,107.59 82.898,92.63 L 1627.57,1738.51 c 67.98,-14.95 157.02,-73.29 197.87,-129.65 l 928.5,-1280.919 c 40.85,-56.359 18.62,-90.41 -49.4,-75.671 L 799.531,665.039 C 731.508,679.781 657.539,745.762 635.16,811.66 L 255.543,1929.49 Z m 2331.747,784.09 c 41.04,56.22 80.55,45.58 87.81,-23.65 L 2900.79,537.25 c 7.26,-69.219 -20.22,-79.75 -61.07,-23.398 L 1988.2,1688.6 c -40.84,56.36 -40.69,148.46 0.34,204.68 l 598.75,820.3 z m -746.89,-720.4 c -41.03,-56.21 -130.22,-89.98 -198.2,-75.02 L 537.68,2161.13 c -67.977,14.95 -69.586,45.25 -3.578,67.32 l 1835.258,613.71 c 66.01,22.07 86.45,-5.86 45.41,-62.08 l -574.37,-786.9 z m 2140.22,-643.23 c 36.36,59.34 20.04,141.37 -36.27,182.28 l -945.8,687.17 c -56.31,40.91 -108.32,131.02 -115.58,200.24 l -66.07,630.2 c -7.26,69.22 -67.21,107.79 -133.21,85.72 L 86.0039,2266.88 C 19.9961,2244.8 -15.6992,2172.82 6.68359,2106.92 L 498.57,658.551 c 22.383,-65.91 96.356,-131.86 164.383,-146.571 L 3015.46,3.26172 c 68.03,-14.71092 153.44,21.80858 189.8,81.16018 L 3980.62,1349.95" /></g></g></svg>