<?xml version="1.0" encoding="UTF-8"?><svg width="27px" height="27px" viewBox="0 0 27 27" version="1.1" xmlns="http://www.w3.org/2000/svg" xmlns:xlink="http://www.w3.org/1999/xlink"><g id="Icons" stroke="none" stroke-width="1" fill="none" fill-rule="evenodd"><g id="pen" transform="translate(-3.000000, -2.000000)" fill="#000000" fill-rule="nonzero"><path d="M12.7356565,24.678557 C12.6564021,24.7643303 12.5599684,24.8380498 12.4472136,24.8944272 L4.4472136,28.8944272 C3.58765807,29.324205 2.67579505,28.4123419 3.10557281,27.5527864 L7.10557281,19.5527864 C7.16195019,19.4400316 7.23566968,19.3435979 7.32144295,19.2643435 L22.2928932,4.29289322 L23.2928932,3.29289322 C24.4833224,2.10246408 26.0333553,2.61914173 27.7071068,4.29289322 C29.3808583,5.96664471 29.8975359,7.51667765 28.7071068,8.70710678 L27.7071068,9.70710678 L12.7356565,24.678557 Z M12,22.5857864 L24.5857864,10 L22,7.41421356 L9.41421356,20 L12,22.5857864 Z M26,8.58578644 L26.2928932,8.29289322 L27.2928932,7.29289322 C27.3484564,7.23732999 27.3521668,7.21877812 27.3013167,7.06622777 C27.1925639,6.73996948 26.859584,6.27379756 26.2928932,5.70710678 C25.7262024,5.140416 25.2600305,4.80743606 24.9337722,4.6986833 C24.7812219,4.64783318 24.76267,4.65154356 24.7071068,4.70710678 L23.7071068,5.70710678 L23.4142136,6 L26,8.58578644 Z M6.23606798,25.763932 L10.311835,23.7260485 L8.27395147,21.688165 L6.23606798,25.763932 Z" id="Combined-Shape"></path></g></g></svg>
