<?xml version="1.0" encoding="UTF-8" standalone="no"?>
<svg width="126px" height="98px" viewBox="0 0 126 98" version="1.1" xmlns="http://www.w3.org/2000/svg" xmlns:xlink="http://www.w3.org/1999/xlink" xmlns:sketch="http://www.bohemiancoding.com/sketch/ns">
    <!-- Generator: Sketch 3.3.3 (12072) - http://www.bohemiancoding.com/sketch -->
    <title>Type something</title>
    <desc>Created with Sketch.</desc>
    <defs></defs>
    <g id="Basics" stroke="none" stroke-width="1" fill="none" fill-rule="evenodd" sketch:type="MSPage">
        <g id="Login-Success" sketch:type="MSArtboardGroup" transform="translate(-987.000000, -352.000000)" stroke="#FFFFFF">
            <path d="M1112.27679,372.053571 C1112.27679,374.196439 1111.52679,376.01785 1110.02679,377.517857 L1051.84821,435.696429 L1040.91964,446.625 C1039.41964,448.125007 1037.59822,448.875 1035.45536,448.875 C1033.31249,448.875 1031.49108,448.125007 1029.99107,446.625 L1019.0625,435.696429 L989.973214,406.607143 C988.473207,405.107135 987.723214,403.285725 987.723214,401.142857 C987.723214,398.999989 988.473207,397.178579 989.973214,395.678571 L1000.90179,384.75 C1002.40179,383.249992 1004.2232,382.5 1006.36607,382.5 C1008.50894,382.5 1010.33035,383.249992 1011.83036,384.75 L1035.45536,408.455357 L1088.16964,355.660714 C1089.66965,354.160707 1091.49106,353.410714 1093.63393,353.410714 C1095.7768,353.410714 1097.59821,354.160707 1099.09821,355.660714 L1110.02679,366.589286 C1111.52679,368.089293 1112.27679,369.910704 1112.27679,372.053571 L1112.27679,372.053571 Z" id="Type-something" sketch:type="MSShapeGroup"></path>
        </g>
    </g>
</svg>