<?xml version="1.0" encoding="UTF-8" standalone="no"?>
<svg width="300px" height="242px" viewBox="0 0 300 242" version="1.1" xmlns="http://www.w3.org/2000/svg" xmlns:xlink="http://www.w3.org/1999/xlink" xmlns:sketch="http://www.bohemiancoding.com/sketch/ns">
    <!-- Generator: Sketch 3.3.2 (12043) - http://www.bohemiancoding.com/sketch -->
    <title>01 Sulu Logo Full Square White</title>
    <desc>Created with Sketch.</desc>
    <defs>
        <path id="path-1" d="M0,242 L300,242 L300,0.527 L0,0.527"></path>
    </defs>
    <g id="Page-1" stroke="none" stroke-width="1" fill="none" fill-rule="evenodd" sketch:type="MSPage">
        <g id="01-Sulu-Logo-Full-Square-White" sketch:type="MSLayerGroup">
            <path d="M35.7,223.192 C35.7,220.27 34.97,217.987 33.145,216.434 C31.501,214.973 29.309,214.154 26.068,213.696 L18.353,212.601 C13.103,211.824 9.132,210.182 6.071,207.35 C2.83,204.383 1.278,200.184 1.278,194.887 C1.278,183.564 9.496,175.896 23.01,175.896 C29.173,175.896 32.917,176.901 38.303,179.731 C40.585,180.917 42.274,182.606 42.274,184.706 C42.274,185.756 41.91,186.808 41.133,187.719 C40.402,188.588 39.444,189.136 38.119,189.136 C37.069,189.136 35.472,188.541 34.148,187.719 C30.268,185.347 27.21,184.525 22.644,184.525 C14.975,184.525 10.865,188.677 10.865,194.613 C10.865,196.987 11.504,199.179 13.24,200.639 C14.884,202.1 16.8,203.014 20.361,203.561 L28.123,204.747 C34.056,205.661 37.344,207.03 40.174,209.588 C43.643,212.782 45.471,217.256 45.471,222.919 C45.471,234.879 35.792,242 22.097,242 C14.289,242 9.404,240.494 4.61,237.617 C1.233,235.609 0,234.24 0,231.865 C0,230.771 0.503,229.493 1.369,228.624 C2.191,227.802 3.197,227.438 4.246,227.438 C5.524,227.438 6.666,227.849 8.446,229.082 C12.829,232.096 16.664,233.235 22.28,233.235 C30.862,233.235 35.7,229.582 35.7,223.192" id="Fill-1" fill="#FFFFFF" sketch:type="MSShapeGroup"></path>
            <path d="M84.982,219.539 L84.982,182.789 C84.982,180.37 85.026,179.593 85.712,178.315 C86.443,176.99 87.948,176.079 89.912,176.079 C91.875,176.079 93.381,176.99 94.111,178.315 C94.797,179.593 94.841,180.37 94.841,182.789 L94.841,219.084 C94.841,227.802 100.138,233.235 108.264,233.235 C116.391,233.235 121.685,227.802 121.685,219.084 L121.685,182.789 C121.685,180.37 121.732,179.593 122.415,178.315 C123.146,176.99 124.654,176.079 126.617,176.079 C128.578,176.079 130.086,176.99 130.817,178.315 C131.5,179.593 131.547,180.37 131.547,182.789 L131.547,219.539 C131.547,232.962 121.504,242 108.264,242 C95.025,242 84.982,232.962 84.982,219.539" id="Fill-2" fill="#FFFFFF" sketch:type="MSShapeGroup"></path>
            <path d="M176.213,240.039 C174.797,238.623 174.797,236.887 174.797,235.426 L174.797,182.789 C174.797,180.37 174.844,179.593 175.527,178.315 C176.258,176.99 177.766,176.079 179.727,176.079 C181.69,176.079 183.198,176.99 183.929,178.315 C184.612,179.593 184.659,180.37 184.659,182.789 L184.659,232.687 L210.316,232.687 C212.416,232.687 213.327,232.779 214.332,233.326 C215.518,234.012 216.341,235.337 216.341,237.07 C216.341,238.806 215.518,240.131 214.332,240.814 C213.327,241.361 212.416,241.453 210.316,241.453 L180.824,241.453 C179.363,241.453 177.627,241.453 176.213,240.039" id="Fill-3" fill="#FFFFFF" sketch:type="MSShapeGroup"></path>
            <g id="Group-7">
                <mask id="mask-2" sketch:name="Clip 5" fill="white">
                    <use xlink:href="#path-1"></use>
                </mask>
                <g id="Clip-5"></g>
                <path d="M253.435,219.539 L253.435,182.789 C253.435,180.37 253.479,179.593 254.165,178.315 C254.896,176.99 256.401,176.079 258.365,176.079 C260.328,176.079 261.834,176.99 262.564,178.315 C263.25,179.593 263.295,180.37 263.295,182.789 L263.295,219.084 C263.295,227.802 268.591,233.235 276.717,233.235 C284.844,233.235 290.138,227.802 290.138,219.084 L290.138,182.789 C290.138,180.37 290.185,179.593 290.868,178.315 C291.599,176.99 293.107,176.079 295.07,176.079 C297.031,176.079 298.539,176.99 299.27,178.315 C299.953,179.593 300,180.37 300,182.789 L300,219.539 C300,232.962 289.957,242 276.717,242 C263.478,242 253.435,232.962 253.435,219.539" id="Fill-4" fill="#FFFFFF" sketch:type="MSShapeGroup" mask="url(#mask-2)"></path>
                <path d="M184.023,46.007 C183.75,43.412 185.255,42.543 187.367,44.077 L212.954,62.667 C215.065,64.201 215.678,67.278 214.316,69.504 L193.034,104.284 C191.672,106.51 190.335,106.208 190.062,103.612 L184.023,46.007 L184.023,46.007 Z M83.565,45.988 C82.725,43.517 84.124,41.953 86.673,42.514 L135.016,53.149 C137.565,53.71 140.904,55.898 142.436,58.011 L177.255,106.046 C178.786,108.159 177.953,109.436 175.402,108.884 L103.964,93.405 C101.413,92.852 98.639,90.378 97.8,87.906 L83.565,45.988 L83.565,45.988 Z M171.005,16.585 C172.544,14.476 174.026,14.875 174.298,17.471 L182.762,98.197 C183.034,100.793 182.003,101.187 180.471,99.074 L148.539,55.021 C147.008,52.908 147.013,49.454 148.552,47.346 L171.005,16.585 L171.005,16.585 Z M142.997,43.599 C141.458,45.707 138.113,46.974 135.564,46.413 L94.145,37.301 C91.596,36.741 91.535,35.605 94.01,34.777 L162.833,11.763 C165.308,10.935 166.074,11.982 164.536,14.091 L142.997,43.599 L142.997,43.599 Z M223.255,67.721 C224.619,65.495 224.007,62.419 221.895,60.885 L186.427,35.116 C184.316,33.582 182.365,30.203 182.093,27.607 L179.615,3.975 C179.343,1.379 177.095,-0.068 174.62,0.76 L77.207,33.336 C74.732,34.163 73.393,36.863 74.232,39.334 L92.678,93.648 C93.517,96.12 96.291,98.593 98.842,99.145 L187.061,118.222 C189.612,118.773 192.815,117.404 194.179,115.178 L223.255,67.721 L223.255,67.721 Z" id="Fill-6" fill="#FFFFFF" sketch:type="MSShapeGroup" mask="url(#mask-2)"></path>
            </g>
        </g>
    </g>
</svg>