<?xml version="1.0" standalone="no"?>
<!DOCTYPE svg PUBLIC "-//W3C//DTD SVG 1.1//EN" "http://www.w3.org/Graphics/SVG/1.1/DTD/svg11.dtd" >
<svg xmlns="http://www.w3.org/2000/svg">
<metadata>Generated by IcoMoon</metadata>
<defs>
<font id="icomoon" horiz-adv-x="1024">
<font-face units-per-em="1024" ascent="960" descent="-64" />
<missing-glyph horiz-adv-x="1024" />
<glyph unicode="&#x20;" d="" horiz-adv-x="512" />
<glyph unicode="&#x2a;" d="M85.333 384v128q0 8.533 6.187 14.933t15.147 6.4h199.253l-128.853 128.853q-6.4 6.4-6.4 15.36t6.4 14.933l90.453 90.453q5.973 6.4 15.147 6.4t15.147-6.4l128.853-128.853v199.253q0 8.96 6.187 15.147t15.147 6.187h128q8.96 0 15.147-6.4t6.187-14.933v-199.68l129.28 129.28q6.4 6.4 15.36 6.4t14.933-6.4l90.453-90.453q6.4-6.4 6.4-15.36t-6.4-15.36l-128.427-128.427h198.4q8.96 0 15.147-6.4t6.187-14.933v-128q0-8.96-6.187-15.147t-15.147-6.187h-198.827l128.853-129.28q6.4-5.973 6.4-15.147t-6.4-15.147l-90.453-90.453q-5.973-6.4-15.147-6.4t-15.147 6.4l-129.28 128.853v-198.827q0-8.96-6.187-15.147t-15.147-6.187h-128q-8.96 0-15.147 6.187t-6.187 15.147v198.4l-128.853-128.427q-5.973-6.4-14.933-6.4t-15.36 6.4l-90.453 90.027q-5.973 6.4-5.973 15.36t5.973 15.36l129.28 129.28h-199.68q-8.96 0-15.147 6.187t-6.187 15.147z" />
<glyph unicode="&#xf7;" d="M128 384v128q0 8.96 6.187 15.147t15.147 6.187h725.333q8.96 0 15.147-6.187t6.187-15.147v-128q0-8.96-6.187-15.147t-15.147-6.187h-725.333q-8.96 0-15.147 6.187t-6.187 15.147zM426.667 128v128q0 8.96 6.187 15.147t15.147 6.187h128q8.96 0 15.147-6.187t6.187-15.147v-128q0-8.96-6.187-15.147t-15.147-6.187h-128q-8.96 0-15.147 6.187t-6.187 15.147zM426.667 640v128q0 8.96 6.187 15.147t15.147 6.187h128q8.96 0 15.147-6.187t6.187-15.147v-128q0-8.96-6.187-15.147t-15.147-6.187h-128q-8.96 0-15.147 6.187t-6.187 15.147z" />
<glyph unicode="&#x2da;" d="M54.613 365.653q-0.427 95.573 34.133 169.173t121.6 141.44l133.547-133.547q-57.6-34.133-95.36-96.213t-37.76-142.293q0-10.24 0.427-15.36 2.133-43.947 26.88-88.533t62.507-78.933 87.893-56.107 100.053-21.76q49.493 0 98.987 21.973t86.4 56.747 61.013 79.147 26.24 87.467q0.427 5.12 0.427 15.36 0 80.213-37.76 142.293t-95.36 96.213l133.547 133.547q87.893-68.267 124.16-142.293t35.84-168.32q-0.427-87.467-30.507-163.84t-84.907-133.12-136.96-89.6-181.12-32.853-181.12 32.853-136.96 89.6-85.12 133.12-30.72 163.84zM211.2 789.333l157.013 157.013q11.52-13.653 22.187-22.613l-93.867-219.733zM381.867 636.16l111.787-120.32 101.547 120.32q-5.547-3.84-15.147-9.387t-36.693-14.933-51.413-9.387-51.84 8.533-42.88 17.067zM381.867 704l55.040 192.853q27.307-9.813 53.333-9.813 24.32 0 49.92 8.96l55.040-192q-2.133-1.707-5.76-4.267t-15.573-8.96-23.893-11.52-28.8-9.173-32.64-4.053q-24.747 0-51.413 9.6t-41.173 18.987zM413.44 960h153.6q-32.853-30.293-76.8-30.293t-76.8 30.293zM587.093 921.6q11.947 9.813 23.467 23.040l155.307-155.307-85.333-85.333z" />
<glyph unicode="&#x20ac;" d="M68.267 277.333l34.133 128h112.213q-0.427 10.24-0.64 26.027t0.213 16.64h-145.92l34.133 128h128q34.133 160.853 132.053 248.747t247.253 87.893q66.56 0 126.507-22.827t107.093-65.067 78.080-106.453 38.613-142.293h-171.52q-8.533 65.28-61.013 114.56t-117.76 49.28q-83.627 0-129.707-35.627t-67.84-128.213h287.573l-34.133-128h-273.92q-0.427 0-0.427-7.893t0.213-18.56 0.64-16.213h264.96l-34.133-128h-205.227q12.373-33.28 29.44-61.013t40.32-50.56 54.613-35.627 67.627-12.8q79.787 0 125.227 52.48t55.68 150.187h171.52q-6.827-79.787-35.2-148.693t-73.6-119.040-108.16-78.72-135.467-28.587q-71.68 0-134.187 25.387t-109.44 70.613-80.427 105.173-51.84 131.2h-165.547z" />
<glyph unicode="&#x2601;" d="M-36.693 233.387q0 53.76 37.12 91.52t89.6 37.76h0.853q-0.427 14.507-0.64 22.187t-0.427 8.533-0.213 1.493v2.773q0 59.733 28.587 113.28t78.293 85.973 107.733 32.427q23.893 0 43.947-4.693 27.733 90.453 103.040 147.84t170.027 57.387q77.653 0 143.787-39.467t104.533-107.093 38.4-147.413v-1.28q53.76-1.707 99.84-33.28t72.533-82.133 26.453-106.88q0-63.573-34.133-118.187t-90.88-87.467h-914.773q-45.653 0-74.667 38.4t-29.013 88.32z" />
<glyph unicode="&#x2602;" d="M-42.667 374.613q0 112.64 40.107 216.533t108.373 181.76 163.2 127.36 200.32 57.173v44.8q0 17.493 12.587 30.080t30.080 12.587 30.080-12.587 12.587-30.080v-44.8q105.387-7.68 200.32-57.173t163.2-127.36 108.373-181.76 40.107-216.533h-2.133q-58.027 114.773-188.16 114.773-55.467 0-102.613-21.973t-79.573-63.36q-33.707 43.093-81.28 68.693t-100.907 25.6q-52.48 0-100.053-27.093t-82.133-71.467q-32.853 42.667-80.213 66.56t-101.547 23.893q-130.133 0-188.587-115.627h-2.133zM213.333 20.907v20.907q0 8.96 6.187 15.147t15.147 6.613h42.667q8.96-0.427 15.147-6.613t6.187-15.147v-20.907q0-16.213 4.053-30.293t13.227-26.88 26.453-20.267 41.6-7.467q23.893 0 41.387 7.893t25.6 17.493 12.587 23.68 5.12 21.12 0.64 14.72v375.467q0 1.28 5.973 3.2t16.213 3.627 20.48 1.707 20.48-1.707 16.213-3.627 5.973-3.2v-375.467q0-32-10.667-61.867t-31.36-54.4-55.040-39.253-77.44-14.72q-76.373 0-121.6 45.867t-45.227 124.373z" />
<glyph unicode="&#x2609;" d="M0 405.333v85.333h171.093q-2.987 0-2.987-42.667t2.987-42.667h-171.093zM118.613 117.333l121.173 121.6q26.453-34.56 63.147-63.147l-121.6-121.173zM118.613 778.667l62.72 62.72 121.6-121.173q-35.413-27.733-63.147-63.147zM303.787 448q0 55.893 28.16 103.893t76.16 76.16 103.893 28.16 103.893-28.16 76.16-76.16 28.16-103.893-28.16-103.893-76.16-76.16-103.893-28.16-103.893 28.16-76.16 76.16-28.16 103.893zM469.333-64v171.093q0-2.987 42.667-2.987t42.667 2.987v-171.093h-85.333zM469.333 788.907v171.093h85.333v-171.093q0 2.987-42.667 2.987t-42.667-2.987zM721.067 175.787q36.693 28.587 63.147 63.147l121.173-121.6-62.72-62.72zM721.067 720.213l121.6 121.173 62.72-62.72-121.173-121.6q-27.733 35.413-63.147 63.147zM852.907 405.333q2.987 0 2.987 42.667t-2.987 42.667h171.093v-85.333h-171.093z" />
<glyph unicode="&#x2693;" d="M1.707 298.24q-1.28 8.533 4.267 13.867t14.080 4.053l274.773-39.253q8.533-1.28 10.453-6.613t-4.053-11.307l-71.253-71.68q40.96-44.373 88.107-72.533t108.587-40.533v567.467q-35.84 24.747-61.013 64.213t-25.173 83.413q0 70.827 49.707 120.747t120.533 49.92q70.4 0 120.747-50.133t50.347-120.533q0-44.373-24.533-83.84t-59.947-63.787v-567.467q61.013 12.373 107.307 40.32t87.253 72.32l-72.533 71.68q-6.4 6.4-4.48 11.733t10.453 6.613l274.347 38.827q8.96 1.28 14.293-4.053t4.053-13.867l-39.253-274.347q-1.28-8.96-6.613-10.667t-11.307 4.267l-80.213 80.213q-71.68-75.52-167.68-118.4t-203.093-42.88q-107.947 0-204.16 42.453t-167.467 117.973l-78.933-78.933q-6.4-6.4-11.733-4.48t-6.613 10.453zM419.84 789.333q0-37.12 26.453-63.573t64-26.453q37.12 0 63.36 26.453t26.24 63.573-26.24 63.573-63.36 26.453q-37.547 0-64-26.453t-26.453-63.573z" />
<glyph unicode="&#x2698;" d="M128 401.067q30.72-8.96 62.72-17.067t48.427-11.947 34.133-9.173 28.16-11.307 21.333-15.573 21.973-24.107q22.187-28.16 27.733-59.093t-1.707-66.773l98.56-98.56v326.827q-80.213 9.813-147.627 58.667t-92.587 121.813q-29.867 87.040-14.080 191.573 43.093 2.987 92.587 2.987-2.56 23.040-1.92 47.787t2.347 43.947l2.133 19.2q27.733 5.12 66.987 5.12-17.493-22.187-29.227-63.147t-15.147-70.827l-2.987-29.867 42.667-11.093q84.053-22.187 113.493-93.867l47.36-116.053 47.36 116.053q29.44 71.68 113.493 93.867l42.667 11.093q-0.427 4.693-1.067 12.587t-4.267 30.293-8.32 42.24-13.653 42.453-20.053 36.267q17.493 0 34.133-1.28t24.747-2.56l8.107-1.28q0.853-7.68 1.92-19.2t2.56-43.947-1.92-47.787q49.493 0 92.587-2.987 15.787-105.387-14.080-191.573-25.173-72.96-92.587-121.813t-147.627-58.667v-326.827l98.56 98.56q-2.56 15.36-3.627 25.813t-0.213 28.373 8.32 36.053 21.12 35.627l0.427 0.427q13.227 16.64 27.947 27.947t35.627 18.987 38.827 12.373 52.48 13.013 61.867 16.427q0-55.893-8.747-99.84t-22.827-71.040-33.493-45.44-38.613-26.24-40.96-10.027-37.76 0-31.36 6.4l-127.573-127.573v-91.307h-128v91.307l-127.573 127.573q-14.933-4.267-31.147-6.4t-37.76 0-40.96 10.027-38.827 26.24-33.493 45.44-22.827 71.040-8.747 99.84zM395.947 783.787q2.987 32 18.347 65.067t34.987 57.173 38.827 43.52 32.427 29.227l12.8 10.24q5.12-3.84 13.653-10.453t30.933-28.587 40.107-44.587 33.707-56.107 18.987-65.493q-61.44-16.213-96.853-52.053-25.173-25.173-40.533-63.147-15.36 37.973-40.533 63.147-35.413 35.84-96.853 52.053z" />
<glyph unicode="&#x2708;" d="M0 121.6v72.96q0 8.96 4.693 19.2t11.52 16.213l367.787 306.773v297.813q0 49.92 34.987 87.68t94.293 37.76 93.013-37.547 33.707-87.893v-297.813l367.787-306.773q6.827-5.973 11.52-16.213t4.693-19.2v-72.533q0-8.533-5.547-11.947t-13.227 0.427l-407.893 212.053v-256l111.36-90.027q6.827-5.547 11.733-15.573t4.907-18.987v-32q0-8.96-5.973-13.44t-14.507-1.92l-150.187 43.947q-8.533 2.56-42.667 2.56t-42.667-2.56l-150.187-43.947q-8.533-2.56-14.507 1.92t-5.973 13.44v32q0 8.96 4.907 18.987t11.733 15.573l111.36 90.027v256l-407.893-212.48q-7.68-3.84-13.227-0.427t-5.547 11.947z" />
<glyph unicode="&#x2709;" d="M0 106.667l298.667 298.667 213.333-213.333 213.333 213.333 298.667-298.667h-1024zM0 192v512l256-256zM0 789.333h1024l-512-512zM768 448l256 256v-512z" />
<glyph unicode="&#x270f;" d="M0.853-50.773l100.693 262.4 174.080-174.080-262.4-100.693q-8.107-3.413-11.947 0.213t-0.427 12.16zM154.453 264.533l547.84 547.413 174.080-173.653-547.84-548.267zM754.773 864.853l87.040 87.040q8.96 8.96 21.76 8.96t21.76-8.96l130.56-130.56q8.96-8.96 8.96-21.76t-8.96-21.76l-87.040-87.040-152.32 152.32z" />
<glyph unicode="&#x2744;" d="M-84.48 448q0 16.213 11.093 29.44t30.72 13.227h67.84l-40.533 40.107q-9.387 9.387-11.733 20.693t1.28 21.12 11.52 17.707 17.707 11.52 21.12 1.28 20.693-11.733l100.267-100.693h128l45.227 90.453-80.213 80.213h-153.173q-19.627 0-30.72 13.227t-11.093 29.44 11.093 29.44 30.72 13.227h67.84l-63.573 63.147q-9.387 9.387-11.733 20.693t1.28 21.12 11.52 17.707 17.707 11.52 21.12 1.28 20.693-11.733l63.147-63.573v67.84q0 19.627 13.227 30.72t29.44 11.093 29.44-11.093 13.227-30.72v-153.173l80.64-80.213 90.027 45.227v128l-100.693 100.267q-9.387 9.387-11.733 20.693t1.28 21.12 11.52 17.707 17.707 11.52 21.12 1.28 20.693-11.733l40.107-40.533v67.84q0 19.627 13.227 30.72t29.44 11.093 29.44-11.093 13.227-30.72v-67.84l40.107 40.533q9.387 9.387 20.693 11.733t21.12-1.28 17.707-11.52 11.52-17.707 1.28-21.12-11.733-20.693l-100.693-100.267v-128l90.453-45.227 80.213 80.213v153.173q0 19.627 13.227 30.72t29.44 11.093 29.44-11.093 13.227-30.72v-67.84l63.573 63.573q8.107 8.107 17.707 11.093t18.133 0.853 16.427-7.040 12.8-13.013 7.040-16.64-0.853-18.133-11.093-17.707l-63.573-63.147h67.84q19.627 0 30.72-13.227t11.093-29.44-11.093-29.44-30.72-13.227h-153.173l-80.213-80.213 45.227-90.453h128l100.267 100.693q9.387 9.387 20.693 11.733t21.12-1.28 17.707-11.52 11.52-17.707 1.28-21.12-11.733-20.693l-40.533-40.107h67.84q19.627 0 30.72-13.227t11.093-29.44-11.093-29.44-30.72-13.227h-67.84l40.533-40.107q9.387-9.387 11.733-20.693t-1.28-21.12-11.52-17.707-17.707-11.52-21.12-1.28-20.693 11.733l-100.267 100.693h-128l-45.227-90.027 80.213-80.64h153.173q19.627 0 30.72-13.227t11.093-29.44-11.093-29.44-30.72-13.227h-67.84l63.573-63.573q8.107-8.107 11.093-17.707t0.853-18.133-7.040-16.427-12.8-12.8-16.427-7.040-18.133 0.853-17.707 11.093l-63.573 63.573v-67.84q0-19.627-13.227-30.72t-29.44-11.093-29.44 11.093-13.227 30.72v153.173l-80.64 80.213-90.027-45.227v-128l100.693-100.267q9.387-9.387 11.733-20.693t-1.28-21.12-11.52-17.707-17.707-11.52-21.12-1.28-20.693 11.733l-40.107 40.533v-67.84q0-19.627-13.227-30.72t-29.44-11.093-29.44 11.093-13.227 30.72v67.84l-40.107-40.533q-9.387-9.387-20.693-11.733t-21.12 1.28-17.707 11.52-11.52 17.707-1.28 21.12 11.733 20.693l100.693 100.267v128l-90.453 45.227-80.213-80.213v-153.173q0-19.627-13.227-30.72t-29.44-11.093-29.44 11.093-13.227 30.72v67.84l-63.147-63.573q-8.107-8.107-17.707-11.093t-18.133-0.853-16.64 7.040-13.013 12.8-7.040 16.427 0.853 18.133 11.093 17.707l63.573 63.573h-67.84q-19.627 0-30.72 13.227t-11.093 29.44 11.093 29.44 30.72 13.227h153.173l80.213 80.213-45.227 90.453h-128l-100.267-100.693q-18.347-18.347-41.6-10.24t-29.227 29.013 10.24 41.813l40.533 40.107h-67.84q-19.627 0-30.72 13.227t-11.093 29.44zM347.733 448l54.613-109.653 109.653-54.613 109.653 54.613 54.613 109.653-54.613 109.653-109.653 54.613-109.653-54.613z" />
<glyph unicode="&#xe001;" d="M24.747 960h974.507l-448-549.547v-352.853l298.667-99.413v-21.333h-682.667v21.333l298.667 99.413v355.84zM165.547 874.667l300.373-383.573-172.373 383.573h-128z" />
<glyph unicode="&#xe002;" d="M0.427-73.387l186.453 187.733q12.8 0 50.987-6.187t92.16-12.373 104.32-6.187q44.8 0 86.187 4.907t88.747 18.56 89.173 35.413 84.48 57.813 77.44 82.987 65.707 113.92 52.053 148.053 33.28 187.733 12.16 230.4q-69.547-20.053-145.92-39.68t-129.067-32-110.293-27.307-98.56-27.733-84.267-31.147-77.013-40.107-67.2-52.053-63.787-69.12q-107.52-138.24-107.52-306.347 0-36.267 4.48-73.6t10.88-71.893 7.68-47.787l-162.56-163.413v-60.587zM228.693 212.053q0 10.667 11.947 37.973 18.347 43.52 51.84 86.4t70.4 76.16 85.76 67.413 88.107 57.173 87.040 48.64q97.28 51.627 135.68 77.227 86.613 57.6 137.813 132.693 29.867 43.947 36.267 43.947 1.707 0 1.707-3.413 0-5.547-4.267-18.56t-8.533-23.253l-4.267-10.667q-26.88-55.467-62.293-102.613t-63.147-76.16-77.653-63.147-73.813-47.787-83.2-45.653l-0.427-0.427q-89.6-48.213-176.853-107.733t-120.533-104.32q-5.973-8.107-15.36-18.133t-13.653-10.027q-2.56 0-2.56 4.267z" />
<glyph unicode="&#xe003;" d="M0-21.333v445.44q0 8.96 3.84 20.267t8.96 18.56l81.493 113.067q5.12 7.253 4.267 16.853t-7.68 15.147l-82.773 105.813q-6.827 6.4-7.893 15.147t5.76 16q4.267 4.267 10.027 4.693t8.32-0.64 10.667-4.48q69.547-51.2 95.573-67.413 11.52-7.253 26.027-11.307t23.040-4.48h324.267q11.093 0 20.48 2.133t15.147 5.12 9.813 6.187 5.76 5.333l1.707 2.133q5.973 5.973 14.933 5.973t14.933-5.973l164.267-175.36q6.4-6.4 11.733-17.28t5.333-18.987v-491.947q0-17.493-12.587-30.080t-30.080-12.587h-42.667q-17.493 0-30.080 12.587t-12.587 30.080v283.307q0 8.96-4.907 16t-13.013 7.893l-366.080 76.8q-8.96 0.853-20.48-2.56t-17.92-9.387l-89.6-157.44v-214.613q0-17.493-12.587-30.080t-30.080-12.587h-42.667q-17.493 0-30.080 12.587t-12.587 30.080zM627.2 743.68q0 8.96 5.973 14.933l223.573 223.573q10.24 10.667 19.2 14.933t14.507 0.427 5.547-15.787v-64.427q0.853-23.467 8.96-31.147l198.4-195.413q5.973-6.4 4.693-13.653t-8.533-12.373l-134.827-89.6q-7.253-5.12-16.853-4.693t-16.853 5.973l-28.587 23.893q-7.253 5.547-16.427 5.12t-15.147-6.4l-45.653-45.653q-6.4-6.4-15.36-6.4t-14.933 6.4l-161.707 174.933q-5.973 6.4-5.973 15.36z" />
<glyph unicode="&#xe004;" d="M21.333 0v100.267q0 34.133 8.747 51.413t33.92 31.36q205.227 118.613 298.667 159.147v160.427q-42.667 31.573-42.667 95.573v127.147q0 53.76 20.693 96.427t65.067 69.12 106.24 26.453 106.24-26.453 65.067-69.12 20.693-96.427v-127.147q0-63.573-42.667-95.147v-160.853q79.36-32.427 298.667-159.147 25.173-14.080 33.92-31.36t8.747-51.413v-100.267q0-8.96-6.187-15.147t-15.147-6.187h-938.667q-8.533 0-14.933 6.187t-6.4 15.147z" />
<glyph unicode="&#xe005;" d="M85.12 28.8q-0.213 4.907 2.133 18.987t8.107 27.307 20.267 29.867 35.413 29.44q8.96 5.12 51.84 35.2t93.227 62.293 87.893 51.413v86.187l-106.24 39.253-87.893-133.547-98.133 98.56 148.053 49.493 58.88 110.080v170.667q0 55.893 26.24 104.32t75.733 78.72 111.36 30.293q55.467 0 102.613-30.293t75.733-78.72 34.987-104.32v-170.667l58.453-110.080 148.48-49.493-98.133-98.56-87.893 133.547-106.24-39.253v-86.187q37.547-19.2 87.893-51.413t93.227-62.293 51.84-35.2q20.907-12.8 35.413-29.013t20.267-30.507 8.32-26.667 2.133-19.627l-0.427-7.253v-21.333q0-8.96-6.4-15.147t-14.933-6.187h-810.667q-8.96 0-15.147 6.187t-6.187 15.147v21.333h0.427q-0.427 2.56-0.64 7.467z" />
<glyph unicode="&#xe006;" d="M-42.667 554.667v42.667q0 8.96 6.187 15.147t15.147 6.187h81.067l69.973 233.387q18.773 37.973 38.613 51.627t60.373 13.653h566.613q40.533 0 60.373-13.653t38.613-51.627l69.973-233.387h81.067q8.96 0 15.147-6.187t6.187-15.147v-42.667q0-8.96-6.187-15.147t-15.147-6.187h-39.253l17.92-42.667v-490.667q0-8.96-6.187-15.147t-15.147-6.187h-85.333q-8.533 0-14.933 6.187t-6.4 15.147v64h-768v-64q0-8.96-6.187-15.147t-15.147-6.187h-85.333q-8.533 0-14.933 6.187t-6.4 15.147v490.667l17.92 42.667h-39.253q-8.96 0-15.147 6.187t-6.187 15.147zM42.667 362.667l42.667-42.667h128v85.333l-170.667 46.933v-89.6zM146.773 618.667h730.453q-43.52 180.48-50.773 196.267-9.813 17.067-25.6 17.067h-577.707q-15.787 0-25.6-17.067-3.413-6.827-16-55.893t-23.68-94.72zM341.333 149.333h341.333v85.333h-341.333v-85.333zM810.667 320h128l42.667 42.667v89.6l-170.667-46.933v-85.333z" />
<glyph unicode="&#xe007;" d="M-85.333 469.333v42.667q0 8.96 6.187 15.147t15.147 6.187h149.333v149.333q0 8.96 6.187 15.147t15.147 6.187h42.667q8.96 0 15.147-6.187t6.187-15.147v-149.333h149.333q8.96 0 15.147-6.187t6.187-15.147v-42.667q0-8.96-6.187-15.147t-15.147-6.187h-149.333v-149.333q0-8.96-6.187-15.147t-15.147-6.187h-42.667q-8.96 0-15.147 6.187t-6.187 15.147v149.333h-149.333q-8.96 0-15.147 6.187t-6.187 15.147zM128 0v100.267q0 34.133 8.747 51.413t33.92 31.36q205.227 118.613 298.667 159.147v160.427q-42.667 31.573-42.667 95.573v127.147q0 53.76 20.693 96.427t65.067 69.12 106.24 26.453 106.24-26.453 65.067-69.12 20.693-96.427v-127.147q0-63.573-42.667-95.147v-160.853q79.36-32.427 298.667-159.147 25.173-14.080 33.92-31.36t8.747-51.413v-100.267q0-8.96-6.187-15.147t-15.147-6.187h-938.667q-8.533 0-14.933 6.187t-6.4 15.147z" />
<glyph unicode="&#xe008;" d="M-42.667 469.333v42.667q0 8.96 6.187 15.147t15.147 6.187h298.667q8.96 0 15.147-6.187t6.187-15.147v-42.667q0-8.96-6.187-15.147t-15.147-6.187h-298.667q-8.96 0-15.147 6.187t-6.187 15.147zM85.333 0v100.267q0 34.133 8.747 51.413t33.92 31.36q205.227 118.613 298.667 159.147v160.427q-42.667 31.573-42.667 95.573v127.147q0 53.76 20.693 96.427t65.067 69.12 106.24 26.453 106.24-26.453 65.067-69.12 20.693-96.427v-127.147q0-63.573-42.667-95.147v-160.853q79.36-32.427 298.667-159.147 25.173-14.080 33.92-31.36t8.747-51.413v-100.267q0-8.96-6.187-15.147t-15.147-6.187h-938.667q-8.96 0-15.147 6.187t-6.187 15.147z" />
<glyph unicode="&#xe009;" d="M42.667-64v1024q0 17.493 12.587 30.080t30.080 12.587h853.333q17.493 0 30.080-12.587t12.587-30.080v-1024q0-17.493-12.587-30.080t-30.080-12.587h-853.333q-17.493 0-30.080 12.587t-12.587 30.080zM85.333-21.333h128v85.333h-128v-85.333zM85.333 149.333h128v85.333h-128v-85.333zM85.333 320h128v85.333h-128v-85.333zM85.333 490.667h128v85.333h-128v-85.333zM85.333 661.333h128v85.333h-128v-85.333zM85.333 832h128v85.333h-128v-85.333zM256-21.333h512v426.667h-512v-426.667zM256 490.667h512v426.667h-512v-426.667zM810.667-21.333h128v85.333h-128v-85.333zM810.667 149.333h128v85.333h-128v-85.333zM810.667 320h128v85.333h-128v-85.333zM810.667 490.667h128v85.333h-128v-85.333zM810.667 661.333h128v85.333h-128v-85.333zM810.667 832h128v85.333h-128v-85.333z" />
<glyph unicode="&#xe010;" d="M1.28 677.12l210.773-61.013 65.707-212.907 62.293 212.907 210.347 63.147-210.347 64.853-64 213.333-64-213.333zM6.4 20.48q0 8.96 5.973 14.933l670.72 670.72 90.453-90.88-670.72-670.293q-5.973-6.4-14.933-6.4t-14.933 6.4l-60.587 60.16q-5.973 6.4-5.973 15.36zM472.747 165.973l146.773-43.093 43.093-146.773 43.093 146.773 146.347 43.093-146.347 43.093-43.093 146.773-43.093-146.773zM728.747 426.24l113.493-33.707 33.707-113.493 33.28 113.493 113.493 33.707-113.493 33.28-33.28 113.92-33.707-113.92zM750.933 773.973l171.947 171.52q5.973 6.4 14.933 6.4t14.933-6.4l60.587-60.16q5.973-6.4 5.973-15.147t-5.973-15.147l-171.947-171.52z" />
<glyph unicode="&#xe012;" d="M-42.667 166.4v435.2q0 59.733 42.667 102.4t102.4 42.667h145.493q0.427 1.28 1.28 4.693l13.653 33.28q14.933 37.12 53.76 63.573t78.933 26.453h232.96q40.107 0 78.933-26.453t53.76-63.573l13.653-33.28q0.853-3.413 1.28-4.693h145.493q59.733 0 102.4-42.667t42.667-102.4v-435.2q0-59.733-42.667-102.4t-102.4-42.667h-819.2q-59.733 0-102.4 42.667t-42.667 102.4zM288 362.667q0-60.587 30.080-112.213t81.707-81.707 112.213-30.080q45.653 0 87.040 17.707t71.467 47.787 47.787 71.68 17.707 86.827-17.707 86.827-47.787 71.68-71.467 47.787-87.040 17.707q-60.587 0-112.213-30.080t-81.707-81.707-30.080-112.213zM394.667 362.667q0 48.64 34.347 82.987t82.987 34.347 82.987-34.347 34.347-82.987-34.347-82.987-82.987-34.347-82.987 34.347-34.347 82.987zM853.333 576h85.333v42.667h-85.333v-42.667z" />
<glyph unicode="&#xe013;" d="M0 625.493q0 43.947 14.72 85.973t39.893 75.733 59.733 59.947 73.173 41.6 81.493 17.28 83.413-9.813 80-42.24 70.187-77.867q32.853 47.36 73.387 77.867t81.493 42.24 83.413 9.813 80.64-17.28 72.107-41.6 58.453-59.947 38.827-75.733 14.293-85.973q0-37.973-16.213-77.44t-46.293-78.933-67.84-79.36-85.333-86.187-93.653-92.16-98.56-105.173-94.72-116.907q-42.24 57.6-94.72 116.907t-98.56 105.173-93.653 92.16-85.333 86.187-67.84 79.36-46.293 78.933-16.213 77.44z" />
<glyph unicode="&#xe014;" d="M0 638.72q11.52 26.027 24.32 47.787 50.773 87.893 129.493 149.547t168.96 89.387 189.44 21.76 189.227-48.64l23.040 39.68q8.96 15.36 26.453 20.053t33.28-4.267q15.36-8.96 20.053-26.453t-4.267-33.28l-23.040-39.68q81.92-56.747 136.747-139.52t75.947-174.72 7.253-190.933-64.64-186.88q-14.080-24.32-27.307-41.813 3.413 57.6-23.467 109.013t-78.080 80.853q-40.533 23.467-87.467 26.453t-87.467-13.227q-3.413 53.333-31.36 99.84t-76.16 74.667q-47.787 27.733-102.4 29.013t-100.693-22.187q-7.68 44.8-33.28 82.347t-65.707 60.587q-54.187 30.293-112.427 27.093t-106.453-36.48zM150.613-55.893l285.44 494.080q22.187-4.693 41.813-15.787 19.2-11.52 33.707-27.307l-260.267-450.987h-100.693zM174.507 750.507l14.080-4.693q37.547-11.947 60.587-21.973t44.16-25.813 36.693-36.693 33.067-53.76l6.827-12.8 7.68 12.373q26.027 41.387 55.68 75.307t55.253 54.827 52.48 36.48 45.867 23.040 36.907 11.733 24.533 4.907 9.6 0.64l3.413 16.213q-87.467 39.253-182.613 39.253-81.067 0-156.8-28.373t-136.32-81.28zM679.68 415.573l14.507 0.853q3.84 0 10.667 0.213t10.24 0.213q58.88 0 96.64-17.493t89.387-64.853l11.093-10.24 2.987 14.507q24.747 127.573-23.253 249.173t-153.813 197.547l-11.947-10.667 0.427-0.427q22.187-44.8 23.040-112.64 1.28-111.787-62.72-232.96z" />
<glyph unicode="&#xe015;" d="M85.333-106.667l228.693 256h-58.027q-26.027 0-49.707 9.387t-40.32 24.533-30.72 33.28-23.040 36.267-15.36 33.28-8.96 24.533l-2.56 9.387v170.667l72.533 427.947q5.12 34.987 33.92 59.52t64.213 24.533h512q35.413 0 64.213-24.533t34.347-59.52l72.107-427.947v-170.667q-0.853-3.413-2.773-9.6t-8.747-23.893-15.36-33.92-23.040-35.84-30.933-33.707-40.107-23.893-49.707-9.813h-61.44l232.107-256h-170.667l-139.52 256h-236.373l-136.107-256h-170.667zM170.667 320l170.667-42.667v85.333l-170.667 85.333v-128zM170.667 533.333q6.827-3.84 19.413-10.667t51.2-23.68 77.227-29.867 92.16-23.68 101.333-10.667 100.48 10.24 93.867 24.533 75.52 28.8 52.693 24.747l18.773 10.24-64 372.053q-0.853 3.413-5.547 7.68t-8.533 4.267h-524.373q-3.84 0-8.747-4.267t-5.333-7.68zM682.667 277.333l170.667 42.667v128l-170.667-85.333v-85.333z" />
<glyph unicode="&#xe016;" d="M0 43.947v596.053q0 8.96 6.187 15.147t15.147 6.187h126.72q8.96 0 15.787-6.187t6.827-15.147v-128q0-8.96 5.547-15.147t14.507-6.187h641.28q8.96 0 15.147 6.187t6.187 15.147v128q0 8.96 6.187 15.147t15.147 6.187h128q8.96 0 15.147-6.187t6.187-15.147v-596.053q0-8.96-6.187-15.787t-15.147-6.827h-157.867q-8.96 0-16.64 6.4t-9.813 14.933l-16.64 86.187q-2.133 8.533-9.813 14.507t-16.64 5.973h-526.507q-8.533 0-16.427-6.187t-10.027-14.72l-16.64-85.76q-2.133-8.533-9.813-14.933t-16.64-6.4h-157.867q-8.96 0-15.147 6.827t-6.187 15.787zM42.667 575.147q0-17.92 12.587-30.293t30.080-12.373 30.080 12.373 12.587 30.293q0 17.493-12.587 30.080t-30.080 12.587-30.080-12.587-12.587-30.080zM215.467 557.227l81.067 381.44q0.853 8.96 7.68 15.147t15.787 6.187h384q8.96 0 15.787-6.187t7.68-15.147l81.067-381.44q0.853-8.533-4.693-14.933t-14.507-6.4h-554.667q-8.96 0-14.507 6.4t-4.693 14.933zM239.787-43.52l32.427 129.707q2.133 8.533 9.813 14.507t16.64 5.973h426.667q8.96 0 16.64-5.973t9.813-14.507l32.427-129.707q2.133-8.533-2.56-14.507t-13.653-5.973h-512q-8.96 0-13.653 5.973t-2.56 14.507z" />
<glyph unicode="&#xe017;" d="M85.333 810.667v42.667q0 8.96 6.187 15.147t15.147 6.187h234.667v85.333q0 34.987 25.173 60.16t60.16 25.173h170.667q34.987 0 60.16-25.173t25.173-60.16v-85.333h234.667q8.96 0 15.147-6.187t6.187-15.147v-42.667q0-8.96-6.187-15.147t-15.147-6.187h-810.667q-8.96 0-15.147 6.187t-6.187 15.147zM128-135.253v860.587q0 10.667 4.693 16t16.64 5.333h716.373q30.293 0 30.293-17.493v-857.173q0-9.813-8.747-15.573t-21.547-5.76h-716.373q-7.253 0-12.587 3.413t-7.040 6.827zM256 0q0-8.96 6.187-15.147t15.147-6.187h42.667q8.96 0 15.147 6.187t6.187 15.147v597.333q0 8.96-6.187 15.147t-15.147 6.187h-42.667q-8.96 0-15.147-6.187t-6.187-15.147v-597.333zM426.667 874.667h170.667v85.333h-170.667v-85.333zM469.333 0q0-8.96 6.187-15.147t15.147-6.187h42.667q8.96 0 15.147 6.187t6.187 15.147v597.333q0 8.96-6.187 15.147t-15.147 6.187h-42.667q-8.96 0-15.147-6.187t-6.187-15.147v-597.333zM682.667 0q0-8.96 6.187-15.147t15.147-6.187h42.667q8.96 0 15.147 6.187t6.187 15.147v597.333q0 8.96-6.187 15.147t-15.147 6.187h-42.667q-8.96 0-15.147-6.187t-6.187-15.147v-597.333z" />
<glyph unicode="&#xe018;" d="M54.613 8.107q15.36-47.36 73.387-67.413t125.867 0.853q55.040 17.92 91.52 53.547t38.613 68.907v543.573l469.333 125.013v-418.133q-50.773 12.373-118.187-9.387-66.987-21.76-104.107-71.893t-21.76-97.067q15.36-47.36 73.387-67.413t125.867 0.853q55.040 17.493 91.52 53.333t38.613 69.12v751.36q0 8.96-5.973 13.44t-14.507 2.347l-599.040-157.44q-8.533-2.56-14.507-10.453t-5.973-16.853v-587.947q-49.92 12.8-118.187-9.387-66.987-21.76-104.107-71.893t-21.76-97.067z" />
<glyph unicode="&#xe019;" d="M153.6 21.333q-11.947 37.12 4.267 77.44t55.893 73.387 93.44 50.56q57.173 18.347 120.747 8.533l0.427 702.72q0 10.667 7.68 18.347t18.347 7.68h74.24q10.667 0 18.347-7.68t7.68-18.347v-23.467q18.773-9.387 59.307-25.387t73.173-30.293 68.053-34.56 59.52-47.573 32.213-59.733q10.667-40.96 4.693-77.013t-19.413-64.427-33.28-50.56-36.48-34.987-29.013-17.92q-16.213-5.973-17.92-2.773t4.267 10.027l5.973 7.253q2.56 3.84 6.4 10.24t11.947 25.6 11.947 37.76 1.493 43.093-14.293 44.587q-11.52 19.2-37.973 31.36t-52.693 16-55.467 10.027-42.453 13.867v-603.733q0-0.853-0.427-2.347t-0.427-2.347q-5.12-48.64-48.427-92.8t-109.44-65.493q-56.32-16.64-105.813-13.653t-86.827 26.027-49.707 60.587z" />
<glyph unicode="&#xe020;" d="M9.387 625.493q0 43.947 14.72 85.973t39.893 75.733 59.733 59.947 73.173 41.6 81.493 17.28 83.413-9.813 80-42.24 70.187-77.867q32.853 47.36 73.387 77.867t81.493 42.24 83.413 9.813 80.64-17.28 72.107-41.6 58.453-59.947 38.827-75.733 14.293-85.973q0-37.973-16.213-77.44t-46.293-78.933-67.84-79.36-85.333-86.187-93.653-92.16-98.56-105.173-94.72-116.907q-42.24 57.6-94.72 116.907t-98.56 105.173-93.653 92.16-85.333 86.187-67.84 79.36-46.293 78.933-16.213 77.44zM116.053 625.493q0-19.2 11.733-43.733t26.667-45.653 46.507-55.467 52.907-55.68 64-63.147q122.453-119.040 194.133-201.387 63.573 73.387 194.987 202.667 29.867 29.013 45.653 44.8t40.747 41.387 38.4 41.173 30.507 36.907 25.387 36.48 14.293 31.573 5.973 30.080q0 36.267-15.36 69.12t-39.893 55.467-55.040 36.053-60.8 13.44q-78.933 0-136.96-84.48l-90.453-130.133-86.613 132.693q-53.76 81.92-130.987 81.92-31.147 0-62.507-13.44t-56.533-36.053-40.96-55.467-15.787-69.12z" />
<glyph unicode="&#xe021;" d="M-41.387 448l575.573 572.587v-2.133l148.48-147.2v131.413h170.667v-300.8l256-253.867h-170.667v-512h-298.667v341.333h-213.333v-341.333h-298.667v512h-169.387z" />
<glyph unicode="&#xe023;" d="M105.387 285.44q0.853 17.92 4.48 45.227t10.88 49.28 20.053 49.067 30.507 49.493 43.947 45.867 58.667 42.667q-2.56-6.827-8.533-22.613-7.253-19.2-11.093-30.080t-10.453-31.573-8.533-33.707-3.627-30.72 2.347-28.8 11.093-21.973 21.333-16.427 33.92-6.4q15.36-0.427 27.52 1.707t20.907 8.32 14.933 13.44 9.387 19.627 5.12 23.68 0.853 29.227-2.347 32.427-4.907 37.333-6.613 39.893-8.107 43.947q-8.96 50.347-13.653 77.227-6.4 40.96-2.347 77.867t16.427 69.12 28.373 59.093 33.493 48.213 32 36.053 23.893 22.4l9.813 7.68q-5.973-58.027 13.013-134.827t51.2-142.507 72.747-114.133 73.813-54.827q37.12-7.253 36.693 36.693-0.427 56.32-62.72 188.16 74.667-35.413 129.92-86.613t86.613-107.947 46.507-121.387 14.293-126.72-14.507-123.947q-14.933-67.413-42.667-117.12t-66.773-81.28-85.12-48.853-103.68-23.68q-40.96-4.267-42.24 17.92t20.907 63.573q7.68 17.92 12.16 28.8t11.093 28.8 10.88 34.773 6.4 33.92q5.547 46.507-18.987 109.867t-67.2 114.133q1.28-22.613-1.707-53.333t-10.24-67.413-19.84-74.453-29.227-74.027-39.68-66.56-49.707-51.627-61.227-29.44-72.533 0q-143.787 54.613-170.667 234.667-2.56 16.64-3.84 27.093t-2.773 34.133-0.64 41.6z" />
<glyph unicode="&#xe024;" d="M42.667 405.333v213.333h256v-212.48q0-39.68 11.733-77.227t34.347-68.48 59.733-49.707 83.627-18.773h5.12q37.547 0 69.12 12.373t53.547 33.28 37.333 48.64 22.4 58.027 7.040 61.867v212.48h256v-213.333q0-98.987-34.347-186.24t-93.653-149.333-141.867-97.92-175.573-35.84h-5.12q-74.667 0-142.933 22.827t-122.88 65.493-95.147 99.84-62.507 129.707-21.973 151.467zM42.667 704v170.667q0 17.493 12.587 30.080t30.080 12.587h170.667q17.493 0 30.080-12.587t12.587-30.080v-170.667h-256zM682.667 704v170.667q0 17.493 12.587 30.080t30.080 12.587h170.667q17.493 0 30.080-12.587t12.587-30.080v-170.667h-256z" />
<glyph unicode="&#xe025;" d="M-213.333 0v100.267q0 34.133 8.747 51.413t33.92 31.36q205.227 118.613 298.667 159.147v160.427q-42.667 31.573-42.667 95.573v127.147q0 53.76 20.693 96.427t65.067 69.12 106.24 26.453 106.24-26.453 65.067-69.12 20.693-96.427v-127.147q0-64-42.667-95.147v-160.853q79.36-32.427 298.667-159.147 25.173-14.080 33.92-31.36t8.747-51.413v-100.267q0-8.96-6.187-15.147t-15.147-6.187h-938.667q-8.533 0-14.933 6.187t-6.4 15.147zM516.267 376.96q-0.427 7.040 3.2 13.44t11.307 14.72 15.573 15.36 18.773 17.707 18.987 20.053q26.453 30.72 34.773 64t8.32 98.987q0 40.533 20.053 78.293t59.52 63.573 88.96 26.24q49.493-0.427 88.96-26.24t59.52-63.573 20.053-78.293q0-66.56 7.893-99.627t33.92-63.36q7.68-8.96 18.347-19.84t18.133-17.92 14.507-15.573 10.24-14.72 2.347-13.227-6.827-13.44q-23.893-26.027-66.773-48.64t-100.053-26.027v-84.907q61.013-26.453 125.867-57.173t86.613-43.093q20.907-11.947 32.213-26.24t11.307-34.773v-42.667q0-8.96-5.547-15.147t-14.080-6.187h-321.707v139.947q0 43.947-14.72 71.467t-57.387 51.84q-31.573 17.92-55.893 32v14.933q-34.987 1.707-69.12 14.080-29.013 16.213-59.733 32.427-16.213 12.373-31.147 28.16-5.973 6.4-6.4 13.44z" />
<glyph unicode="&#xe026;" d="M0-64v42.667h384v-42.667h-384zM0 21.333v128l85.333 298.667 128 384h42.667v128l170.667-42.667v-85.333h42.667v42.667h85.333v-42.667h42.667v85.333l170.667 42.667v-128h42.667l128-384 85.333-298.667v-128h-384v128l42.667 298.667h-341.333l42.667-298.667v-128h-384zM384 533.333h42.667v213.333h-42.667v-213.333zM597.333 533.333h42.667v213.333h-42.667v-213.333zM640-64v42.667h384v-42.667h-384z" />
<glyph unicode="&#xe027;" d="M-85.333-64l367.36 1024h178.347l-17.067-256h137.813l-17.067 256h177.493l367.787-1024h-459.52l-34.56 384h-206.507l-34.56-384h-459.52zM416.427 405.333h191.147l-22.613 256h-145.493z" />
<glyph unicode="&#xe028;" d="M10.667 544.427q0 82.347 32.213 157.227t86.4 129.067 129.28 86.4 157.44 32.213 157.227-32.213 129.067-86.4 86.4-129.067 32.213-157.227q0-118.613-64.853-219.307l250.88-250.88q6.4-5.973 6.4-14.933t-6.4-15.36l-90.88-90.88q-5.973-5.973-15.147-5.973t-15.147 5.973l-250.88 250.88q-99.84-64.853-218.88-64.853-82.347 0-157.44 32.213t-129.28 86.4-86.4 129.28-32.213 157.44zM139.52 544.427q0-56.32 21.973-107.52t59.093-88.107 88.107-58.88 107.307-21.973 107.307 21.973 88.107 58.88 59.093 88.107 21.973 107.52q0 55.893-21.973 107.093t-59.093 88.107-88.107 58.88-107.307 21.973-107.307-21.973-88.107-58.88-59.093-88.107-21.973-107.093z" />
<glyph unicode="&#xe029;" d="M-213.333 426.667v42.667q0 8.96 6.187 15.147t15.147 6.187h81.067l69.973 190.72q18.773 37.973 38.613 51.627t60.373 13.653h481.28q40.533 0 60.373-13.653t38.613-51.627l69.973-190.72h81.067q8.96 0 15.147-6.187t6.187-15.147v-42.667q0-8.96-6.187-15.147t-15.147-6.187h-39.253l17.92-42.667v-490.667q0-8.96-6.187-15.147t-15.147-6.187h-85.333q-8.96 0-15.147 6.187t-6.187 15.147v64h-682.667v-64q0-8.96-6.187-15.147t-15.147-6.187h-85.333q-8.96 0-15.147 6.187t-6.187 15.147v490.667l17.92 42.667h-39.253q-8.96 0-15.147 6.187t-6.187 15.147zM-128 234.667l42.667-42.667h128v85.333l-170.667 46.933v-89.6zM-23.893 448h645.12q-43.52 180.48-50.773 196.267-9.813 17.067-25.6 17.067h-492.373q-15.787 0-25.6-17.067-3.413-6.827-16-55.893t-23.68-94.72zM128 21.333h341.333v85.333h-341.333v-85.333zM554.667 192h128l42.667 42.667v89.6l-170.667-46.933v-85.333zM579.84 814.080l19.2 37.973q17.493 35.84 38.187 50.56t60.8 14.72h374.613q23.893 0 39.253-3.413t26.24-12.8 17.28-19.2 16.213-29.867l48.64-105.387h81.067q8.96 0 15.147-6.187t6.187-15.147v-42.667q0-8.96-6.187-15.147t-15.147-6.187h-39.253l17.92-42.667v-448q0-8.96-6.187-15.147t-15.147-6.187h-85.333q-8.96 0-15.147 6.187t-6.187 15.147v64h-341.333v42.667h213.333v85.333h-170.667v116.48q0 31.573-11.947 42.88t-43.947 11.307h-40.107l-64 170.667h439.893q-22.187 95.147-29.44 110.933-9.813 17.067-25.6 17.067h-385.707q-15.787 0-25.6-17.067l-18.773-34.987q-34.987 24.32-68.267 34.133zM1109.333 448h85.333l42.667 42.667v89.6l-128-46.933v-85.333z" />
<glyph unicode="&#xe030;" d="M85.333-42.667v981.333q0 8.96 6.187 15.147t15.147 6.187h106.667v-128q0-17.493 12.587-30.080t30.080-12.587h512q17.493 0 30.080 12.587t12.587 30.080v128h106.667q8.96 0 15.147-6.187t6.187-15.147v-981.333q0-8.96-6.187-15.147t-15.147-6.187h-810.667q-8.96 0-15.147 6.187t-6.187 15.147zM213.333 64h213.333v42.667h-213.333v-42.667zM213.333 149.333h597.333v42.667h-597.333v-42.667zM213.333 234.667h597.333v42.667h-597.333v-42.667zM213.333 320h597.333v42.667h-597.333v-42.667zM213.333 490.667h426.667v42.667h-426.667v-42.667zM213.333 576h597.333v42.667h-597.333v-42.667zM256 405.333h554.667v42.667h-554.667v-42.667zM256 661.333h554.667v42.667h-554.667v-42.667zM256 874.667v84.48q0 17.493 13.013 30.507t30.507 13.013h84.48v39.253q0 17.92 12.587 32t30.080 14.080h170.667q17.493 0 30.080-14.080t12.587-32v-39.253h84.48q17.493 0 30.507-13.013t13.013-30.507v-84.48q0-17.493-13.013-30.080t-30.507-12.587h-424.96q-17.493 0-30.507 12.587t-13.013 30.080z" />
<glyph unicode="&#xe032;" d="M-170.667 618.667v170.667q0 42.24 208.64 118.613l28.16 56.747q8.107 15.787 26.24 26.88t35.627 11.093h768q17.493 0 35.627-11.093t26.24-26.88l28.16-56.32q35.84-12.8 67.84-26.24t66.133-30.080 54.4-33.067 20.267-29.653v-170.667q0-17.493-12.587-30.080t-30.080-12.587h-42.667q-17.493 0-30.080 12.587t-12.587 30.080v170.667q0 13.653-42.667 36.693v-868.693q0-8.96-6.187-15.147t-15.147-6.187h-85.333q-8.533 0-14.933 6.187t-6.4 15.147v64h-768v-64q0-8.96-6.187-15.147t-15.147-6.187h-85.333q-8.533 0-14.933 6.187t-6.4 15.147v868.693q-42.667-23.040-42.667-36.693v-170.667q0-17.92-11.093-30.293t-28.587-12.373h-42.667q-17.92 0-31.787 12.587t-13.867 30.080zM42.667 187.733l42.667-38.4h128v85.333l-170.667 42.667v-89.6zM85.333 396.373q0-8.96 5.973-17.28t14.080-11.307q5.547-2.133 16.213-5.76t48.64-12.587 81.28-15.787 113.92-12.587 146.56-5.76 145.707 5.333 115.2 13.013 80 15.573 49.92 13.44l15.787 5.12q8.107 2.987 14.080 11.307t5.973 17.28v414.293q0 8.96-6.187 15.147t-15.147 6.187h-810.667q-8.96 0-15.147-6.187t-6.187-15.147v-414.293zM384 64h298.667v85.333h-298.667v-85.333zM810.667 149.333h128l42.667 38.4v89.6l-170.667-42.667v-85.333z" />
<glyph unicode="&#xe033;" d="M-42.667 617.813q0 114.347 44.16 216.747t123.093 179.2l60.16-60.16q-66.987-65.28-104.533-152.107t-37.547-183.68 37.547-183.68 104.533-152.107l-60.16-60.587q-78.933 77.227-123.093 179.627t-44.16 216.747zM176.64 617.813q0 69.547 27.307 131.627t75.947 109.013l60.16-60.16q-36.693-34.987-57.387-81.707t-20.693-98.773q0-52.48 20.693-99.2t57.387-81.28l-60.16-60.587q-48.64 46.507-75.947 109.013t-27.307 132.053zM404.907 617.813q0 44.373 31.36 75.52t75.733 31.147 75.733-31.36 31.36-75.307q0-34.987-20.48-62.72t-52.907-38.4l51.627-580.693h-170.667l51.627 580.693q-32.427 10.667-52.907 38.4t-20.48 62.72zM683.947 437.333q36.693 34.56 57.387 81.28t20.693 99.2q0 52.053-20.693 98.773t-57.387 81.707l60.16 60.16q48.64-46.933 75.947-109.013t27.307-131.627-27.307-132.053-75.947-109.013zM839.253 282.027q66.987 65.28 104.533 152.107t37.547 183.68-37.547 183.68-104.533 152.107l60.16 60.16q78.933-76.8 123.093-179.2t44.16-216.747-44.16-216.747-123.093-179.627z" />
<glyph unicode="&#xe034;" d="M85.333 64v597.333q0 52.907 37.547 90.453t90.453 37.547h170.667v170.667h-21.333q-8.96 0-15.147 6.187t-6.187 15.147v42.667q0 8.96 6.187 15.147t15.147 6.187h298.667q8.96 0 15.147-6.187t6.187-15.147v-42.667q0-8.96-6.187-15.147t-15.147-6.187h-21.333v-170.667h170.667q52.907 0 90.453-37.547t37.547-90.453v-597.333q0-52.907-37.547-90.453t-90.453-37.547h-42.667q0-17.493-12.587-30.080t-30.080-12.587-30.080 12.587-12.587 30.080h-341.333q0-17.493-12.587-30.080t-30.080-12.587-30.080 12.587-12.587 30.080h-42.667q-52.907 0-90.453 37.547t-37.547 90.453zM170.667 64q0-17.067 12.8-29.867t29.867-12.8h597.333q17.067 0 29.867 12.8t12.8 29.867v341.333q0 17.067-12.8 29.867t-29.867 12.8h-597.333q-17.067 0-29.867-12.8t-12.8-29.867v-341.333zM170.667 576q0-17.067 12.8-29.867t29.867-12.8h597.333q17.067 0 29.867 12.8t12.8 29.867v85.333q0 17.067-12.8 29.867t-29.867 12.8h-597.333q-17.067 0-29.867-12.8t-12.8-29.867v-85.333zM469.333 789.333h85.333v170.667h-85.333v-170.667z" />
<glyph unicode="&#xe035;" d="M42.667 0v101.973q0 34.133 8.747 51.2t33.92 31.573q205.227 118.613 298.667 158.72v106.667q-42.667 31.147-42.667 95.147v70.4q-36.267 13.653-60.373 28.8t-24.107 21.973q0 13.653 6.827 25.6t16.213 11.947h48.213l62.293 280.747q-1.28 9.813 4.267 13.653t14.933 0.427l101.973-29.013q8.96-3.413 21.76-3.627t21.76 3.2l101.973 32.427q9.387 3.413 14.933 0.213t4.267-13.013l62.293-285.013h48.213q9.387 0 16.213-11.947t6.827-25.6q0-6.827-24.107-21.973t-60.373-28.8v-70.4q0-64.427-42.667-94.72v-107.093q79.36-32 298.667-158.72 25.173-14.507 33.92-31.573t8.747-51.2v-101.973q0-8.96-6.187-15.147t-15.147-6.187h-938.667q-8.533 0-14.933 6.187t-6.4 15.147z" />
<glyph unicode="&#xe036;" d="M42.667 0v52.053q0 24.32 12.16 40.96t35.627 29.867q12.373 6.827 129.067 49.707t164.48 66.773v98.133q-58.027 3.84-109.44 30.933t-77.44 55.68q-6.827 7.253-7.467 15.36t3.2 15.573 12.373 17.067 17.707 17.92 21.76 20.693 21.547 23.040q30.72 35.84 40.32 74.453t9.6 114.56q0 34.56 14.080 68.907t38.613 62.080 62.080 45.227 81.067 17.92q43.52-0.427 81.067-17.92t62.080-45.227 38.613-62.080 14.080-68.907q0-75.947 9.6-114.56t40.32-74.453q8.96-10.667 21.547-23.040t21.76-20.693 17.707-17.92 12.373-17.067 3.2-15.573-7.467-15.36q-26.453-28.587-77.867-55.68t-109.013-30.933v-98.133q47.787-23.893 164.267-66.773t128.853-49.707q48.213-26.453 48.213-70.827v-52.053q0-8.96-6.187-15.147t-15.147-6.187h-896q-8.533 0-14.933 6.187t-6.4 15.147z" />
<glyph unicode="&#xe037;" d="M128-42.667v981.333q0 8.96 6.187 15.147t15.147 6.187h490.667v-277.333q0-8.96 6.187-15.147t15.147-6.187h277.333v-704q0-8.96-6.187-15.147t-15.147-6.187h-768q-8.96 0-15.147 6.187t-6.187 15.147zM682.667 725.333v234.667l256-256h-234.667q-8.96 0-15.147 6.187t-6.187 15.147z" />
<glyph unicode="&#xe038;" d="M-42.667 300.8v83.627q0 44.373 57.173 81.92-14.507 20.907-14.507 43.52v83.627q0 44.8 57.6 81.92-14.933 20.48-14.933 43.52v83.627q0 90.88 192 134.827 144.213 34.133 314.453 12.8 178.773-22.187 241.92-93.867 8.96-10.24 14.507-23.040t7.253-28.587 1.92-27.52-0.64-30.72-0.853-27.52q0-14.080-10.667-31.573 86.187-28.16 150.613-94.080t93.653-153.173 15.573-176.853q-13.653-90.453-68.907-165.333t-137.813-117.76-174.293-42.88q-68.267 0-132.693 23.893-72.107-18.347-149.76-23.467-139.093-8.96-273.493 25.6-24.747 6.4-43.307 12.587t-41.387 16.64-40.533 24.96-28.373 32.853q-7.253 11.947-10.453 29.44t-3.2 30.72 1.067 34.773 1.067 30.080q0 34.56 30.72 62.72-33.707 31.147-33.707 62.72zM17.92 385.28l0.427-2.133q3.413-11.947 15.787-22.613t31.147-18.56 31.787-12.373 29.653-9.173q3.413-0.853 4.693-1.28 76.373-22.187 183.040-26.027-2.56 40.96 2.56 81.067-151.040 11.52-236.373 58.027-37.547-15.787-50.347-27.307-8.533-8.533-11.52-17.067zM18.347 174.080q2.133-7.253 6.827-14.080t12.587-12.587 15.147-10.453 18.773-9.173 18.987-7.253 20.693-6.187 18.773-4.907 18.133-4.267 14.293-3.2q27.307-6.4 59.733-10.24t55.68-4.48 61.227-1.493 58.027-1.707q-29.44 34.987-43.52 61.867-90.453 4.693-184.747 20.907t-107.947 37.12l-4.693 7.253q-16.213-5.12-25.813-14.507t-10.88-15.787zM60.16 592.213q4.267-14.507 18.773-26.453t37.333-20.267 38.187-12.587 36.693-9.387q5.547-1.28 7.68-1.707 68.267-16.213 161.707-20.053 20.907 38.4 59.307 79.36-69.973 1.28-164.48 21.547t-132.907 38.613q-20.48-8.107-36.053-20.48t-20.693-20.48zM101.547 803.413l0.427-2.133q1.707-6.4 6.187-12.373t9.387-10.88 13.227-9.813 14.72-8.32 17.28-7.253 16.853-5.973 17.92-5.333 16-4.053 15.147-3.627 11.947-2.773q83.2-20.053 183.893-20.053 103.68-0.427 211.2 27.307 2.133 0.427 12.587 3.2t14.507 4.053 14.293 4.267 15.573 5.333 14.080 6.187 13.867 7.893 10.88 8.96 9.387 10.88 5.333 12.8l-0.853 2.133q-1.707 5.973-5.12 11.52t-9.387 10.453-11.307 8.96-14.080 7.893-14.293 6.4-15.573 5.76-14.293 4.693-14.293 4.267-11.733 3.2q-90.453 27.733-211.627 27.733-124.587 0-216.32-28.587-2.133-0.853-18.133-5.547t-22.4-7.040-20.053-8.107-20.693-11.093-14.507-13.44-10.027-17.493zM381.867 307.413q2.133-64.213 30.72-121.813 32.427-64.853 93.227-108.587t132.053-53.12q63.147-10.667 125.44 8.533t109.227 59.093 77.013 97.92 32.213 121.6q1.707 61.013-21.76 118.613t-64.213 99.84-97.28 67.84-117.547 25.6q-54.613 0-110.080-20.907-60.16-24.32-104.32-70.827t-65.493-103.040-19.2-120.747z" />
<glyph unicode="&#xe040;" d="M85.333-42.667v789.333h853.333v-789.333q0-8.96-6.187-15.147t-15.147-6.187h-810.667q-8.96 0-15.147 6.187t-6.187 15.147zM85.333 789.333v170.667q0 17.493 12.587 30.080t30.080 12.587 30.080-12.587 12.587-30.080h42.667q0 17.493 12.587 30.080t30.080 12.587 30.080-12.587 12.587-30.080h42.667q0 17.493 12.587 30.080t30.080 12.587 30.080-12.587 12.587-30.080h42.667q0 17.493 12.587 30.080t30.080 12.587 30.080-12.587 12.587-30.080h42.667q0 17.493 12.587 30.080t30.080 12.587 30.080-12.587 12.587-30.080h42.667q0 17.493 12.587 30.080t30.080 12.587 30.080-12.587 12.587-30.080h42.667q0 17.493 12.587 30.080t30.080 12.587 30.080-12.587 12.587-30.080v-170.667h-853.333zM213.333 64h213.333v42.667h-213.333v-42.667zM213.333 149.333h597.333v42.667h-597.333v-42.667zM213.333 234.667h597.333v42.667h-597.333v-42.667zM213.333 320h597.333v42.667h-597.333v-42.667zM213.333 490.667h426.667v42.667h-426.667v-42.667zM256 405.333h554.667v42.667h-554.667v-42.667zM256 576h554.667v42.667h-554.667v-42.667z" />
<glyph unicode="&#xe041;" d="M0-64v1066.667h85.333v-128h128v128h42.667v-128h128v128h42.667v-128h128v128h42.667v-128h128v128h42.667v-128h128v128h42.667v-22.187q29.013 21.333 64 21.333 44.373 0 75.52-31.147t31.147-75.52-31.147-75.52-75.52-31.147q-11.947 0-27.307 3.84l-36.693-55.467v-32.853h128v-42.667h-128v-128h128v-42.667h-128v-128h128v-42.667h-128v-128h128v-42.667h-128v-128h128v-85.333h-1066.667zM85.333 70.4l68.267 78.933h-68.267v-78.933zM85.333 192h105.387l22.613 26.027v101.973h-128v-128zM85.333 362.667h128v128h-128v-128zM85.333 533.333h128v128h-128v-128zM85.333 704h128v128h-128v-128zM127.573 21.333h85.76v98.987zM227.413 234.24l44.373 51.2q-9.813 16.64-13.653 34.56h-2.133v-52.48zM256 21.333h128v128h-128v-128zM256 362.667h2.133q7.68 36.267 37.12 60.373t67.413 24.107q9.813 0 21.333-2.133v45.653h-128v-128zM256 533.333h128v128h-128v-128zM256 704h128v128h-128v-128zM275.627 192h108.373v43.947q-11.52-2.133-21.333-2.133-22.187 0-43.093 9.387zM426.667 21.333h128v128h-128v-128zM426.667 192h128v128h-87.467q-8.107-40.96-40.533-64.853v-63.147zM426.667 425.387q8.96-6.827 16.213-14.933l181.76 80.213h-27.307v-11.947l-42.667-18.773v30.72h-128v-65.28zM426.667 533.333h128v128h-128v-128zM426.667 704h128v128h-128v-128zM493.653 362.667h61.013v26.88zM597.333 21.333h128v128h-128v-128zM597.333 192h128v128h-128v-128zM597.333 362.667h128v43.947q-34.133 7.253-57.6 33.28l-70.4-31.147v-46.080zM597.333 533.333h44.8q6.827 31.147 29.44 53.547t53.76 28.8v45.653h-128v-128zM597.333 704h128v128h-128v-128zM768 21.333h128v128h-128v-128zM768 192h128v128h-128v-128zM768 362.667h128v128h-44.8q-5.973-31.573-28.8-54.613t-54.4-29.44v-43.947zM768 615.253q1.707-0.427 5.547-1.493t5.973-1.493l48.64 73.387-16.213-24.32h-43.947v-46.080zM768 704h72.107l81.067 122.88-25.173-38.4v43.52h-128v-128zM832 574.72q14.507-19.2 18.773-41.387h45.227v128h-7.253z" />
<glyph unicode="&#xe042;" d="M-85.333-64v85.333h85.333v192q0 8.96 6.4 15.147t14.933 6.187h170.667q8.96 0 15.147-6.187t6.187-15.147v-192h42.667v448q0 8.96 6.4 15.147t14.933 6.187h170.667q8.96 0 15.147-6.187t6.187-15.147v-448h42.667v917.333q0 8.96 6.4 15.147t14.933 6.187h170.667q8.96 0 15.147-6.187t6.187-15.147v-917.333h42.667v618.667q0 8.96 6.4 15.147t14.933 6.187h170.667q8.96 0 15.147-6.187t6.187-15.147v-618.667h85.333v-85.333h-1152z" />
<glyph unicode="&#xe043;" d="M37.12 446.293q0 96.853 37.973 185.173t101.76 151.893 152.32 101.333 185.387 37.76 183.253-36.693 152.533-102.827l-338.347-336.64v-475.733q-63.147 0-123.947 17.067t-113.067 47.787-96.427 74.667-75.307 96-48.64 113.92-17.493 126.293zM554.667-69.12v475.733l336.64-336.213q-139.52-139.52-336.64-139.52zM599.040 446.293l336.64 336.64q68.693-68.267 104.32-157.227t35.627-179.2-35.627-179.2-104.32-157.227z" />
<glyph unicode="&#xe044;" d="M-256 116.48v74.24q0 21.76 9.387 34.133t29.44 23.467q1.28 0.853 20.907 12.8t40.107 23.893 47.573 26.453 55.893 27.307 52.693 20.053v111.787q-12.373 3.84-20.693 9.387t-12.8 10.453-6.4 13.653-2.347 14.72-0.427 18.347v75.947q0 58.88 32.213 96.213t95.787 37.333 95.787-37.333 32.213-96.213v-75.947q0-12.373-0.427-18.133t-2.347-14.507-6.4-13.653-12.8-10.453-20.693-9.387v-112.213q34.133-10.667 78.933-32.427-88.32-44.373-232.533-126.72l-5.973-3.413q-58.027-32.853-70.4-89.6h-188.587q-3.413 0-5.76 3.2t-2.347 6.613zM0-49.067v106.667q0 34.133 8.747 51.413t33.92 31.36q205.227 118.613 298.667 159.147v160.427q-42.667 31.573-42.667 95.573v127.147q0 53.76 20.693 96.427t65.067 69.12 106.24 26.453 106.24-26.453 65.067-69.12 20.693-96.427v-127.147q0-63.573-42.667-95.147v-160.853q79.36-32.427 298.667-159.147 25.173-14.080 33.92-31.36t8.747-51.413v-106.667q0-4.693-3.413-9.387t-8.107-4.693h-958.293q-4.693 0-8.107 4.693t-3.413 9.387zM732.587 326.827q47.787 23.040 78.080 32v111.787q-12.373 3.84-20.693 9.387t-12.8 10.453-6.4 13.653-2.347 14.72-0.427 18.347v75.947q0 58.88 32.213 96.213t95.787 37.333 95.787-37.333 32.213-96.213v-75.947q0-12.373-0.427-18.133t-2.347-14.507-6.4-13.653-12.8-10.453-20.693-9.387v-112.213q23.893-7.253 52.693-20.053t55.893-27.307 47.573-26.453 40.107-23.893 20.907-12.8q20.053-11.093 29.44-23.467t9.387-34.133v-74.24q0-3.413-2.347-6.613t-5.76-3.2h-188.587q-13.227 57.173-70.4 89.6l-15.36 8.533q-134.827 78.507-222.293 122.027z" />
<glyph unicode="&#xe045;" d="M5.973 939.093q-2.133 8.533 2.56 15.573t13.227 8.32l256 36.693q20.053 2.987 42.24 2.987t42.24-2.987l256-36.693q8.533-1.28 13.227-8.32t2.56-15.573l-117.333-470.613q-2.133-8.533-10.027-14.507t-16.427-5.973h-63.573v-469.333l-42.667-42.24v426.24l-14.080 85.333h-14.507l-14.080-85.333v-42.667h-42.667v-42.667h42.667v-42.667h-42.667v-42.667h42.667v-42.667h-42.667v-42.667h42.667v-42.667h-42.667v-42.667h42.667v-42.667h-42.667v-42.667h42.667v-41.387l-1.28-1.28h-46.507l-80.213 85.333v469.333h-63.573q-8.533 0-16.427 5.973t-10.027 14.507zM237.227 832q0-34.133 24.32-58.453t58.453-24.32 58.453 24.32 24.32 58.453-24.32 58.453-58.453 24.32-58.453-24.32-24.32-58.453zM512 328.96v50.773q30.72 1.707 51.2 21.333t28.16 51.2l105.813 458.24 129.707-360.96q2.987-8.533 0-17.92t-10.24-14.080l-57.173-37.973 260.267-395.947-20.053-116.053-38.4-26.027-117.76 23.467-259.413 395.947-46.080-32.427q-13.227-8.96-26.027 0.427z" />
<glyph unicode="&#xe046;" d="M0-21.333v682.667h981.333v-682.667q0-17.493-12.587-30.080t-30.080-12.587h-896q-17.493 0-30.080 12.587t-12.587 30.080zM0 704v128q0 17.493 12.587 30.080t30.080 12.587h85.333v42.667q0 17.493 12.587 30.080t30.080 12.587h42.667q17.493 0 30.080-12.587t12.587-30.080v-42.667h469.333v42.667q0 17.493 12.587 30.080t30.080 12.587h42.667q17.493 0 30.080-12.587t12.587-30.080v-42.667h85.333q17.493 0 30.080-12.587t12.587-30.080v-128h-981.333zM85.333 21.333h128v128h-128v-128zM85.333 192h128v128h-128v-128zM85.333 362.667h128v128h-128v-128zM256 21.333h128v128h-128v-128zM256 192h128v128h-128v-128zM256 362.667h128v128h-128v-128zM426.667 21.333h128v128h-128v-128zM426.667 192h128v128h-128v-128zM426.667 362.667h128v128h-128v-128zM597.333 21.333h128v128h-128v-128zM597.333 192h128v128h-128v-128zM597.333 362.667h128v128h-128v-128zM768 21.333h128v128h-128v-128zM768 192h128v128h-128v-128zM768 362.667h128v128h-128v-128z" />
<glyph unicode="&#xe047;" d="M-128 768q0 69.973 25.6 133.547t71.68 113.067l60.587-60.16q-72.533-80.213-72.533-186.453 0-60.587 24.96-114.56t68.907-92.8l-60.16-60.587q-55.893 51.2-87.467 120.533t-31.573 147.413zM0 64v128q0 17.493 12.587 30.080t30.080 12.587h128v213.333l42.667 170.667v170.667q0 20.48 21.333 20.48 9.813 0 15.147-5.12t5.76-10.24l0.427-5.12v-170.667l42.667-170.667v-213.333h682.667q17.493 0 30.080-12.587t12.587-30.080v-128q0-34.987-25.173-60.16t-60.16-25.173v-42.667h-853.333v42.667q-34.987 0-60.16 25.173t-25.173 60.16zM69.12 768q0 60.16 40.107 107.093l60.16-60.587q-14.933-20.907-14.933-46.507 0-20.907 9.813-38.827t26.88-28.587l-60.587-60.587q-28.587 23.467-45.013 56.747t-16.427 71.253zM278.187 700.587q17.067 10.667 26.88 28.587t9.813 38.827q0 25.6-14.933 46.507l60.16 60.587q40.107-46.933 40.107-107.093 0-37.973-16.427-71.253t-45.013-56.747zM418.133 560.64q43.947 38.827 68.907 92.8t24.96 114.56q0 106.24-72.533 186.453l60.16 60.16q46.507-49.493 72.107-113.067t25.6-133.547q0-78.080-31.573-147.413t-87.467-120.533zM426.667 106.667h42.667v42.667h-42.667v-42.667zM512 106.667h42.667v42.667h-42.667v-42.667zM597.333 106.667h42.667v42.667h-42.667v-42.667zM682.667 106.667h42.667v42.667h-42.667v-42.667zM810.667 64h85.333v85.333h-85.333v-85.333z" />
<glyph unicode="&#xe048;" d="M42.667 234.667v298.667q0 17.493 12.587 30.080t30.080 12.587h384q17.493 0 30.080-12.587t12.587-30.080h42.667v57.173q-42.667 61.013-42.667 134.827 0 47.787 18.56 91.307t49.92 74.88 74.88 49.92 91.307 18.56 91.307-18.56 74.88-49.92 49.92-74.88 18.56-91.307q0-73.813-42.667-134.827v-533.76q0-49.493-35.627-85.12t-85.12-35.627h-142.507q-49.493 0-85.12 35.627t-35.627 85.12v177.92h-42.667q0-17.493-12.587-30.080t-30.080-12.587h-384q-17.493 0-30.080 12.587t-12.587 30.080zM597.333 725.333q0-61.867 43.733-105.6t105.6-43.733 105.6 43.733 43.733 105.6-43.733 105.6-105.6 43.733-105.6-43.733-43.733-105.6zM640 106.667h42.667v42.667h-42.667v-42.667zM640.853 715.52q19.627-11.52 42.24-11.52 35.413 0 60.16 24.747t24.747 60.16q0 22.613-11.52 42.24 40.96-3.84 68.907-34.133t27.947-71.68q0-44.373-31.147-75.52t-75.52-31.147q-41.387 0-71.68 27.947t-34.133 68.907zM682.667 21.333h42.667v42.667h-42.667v-42.667zM725.333 106.667h42.667v42.667h-42.667v-42.667zM768 21.333h42.667v42.667h-42.667v-42.667zM810.667 106.667h42.667v42.667h-42.667v-42.667z" />
<glyph unicode="&#xe049;" d="M0 576h408.747l125.44 384h1.28l124.587-384h402.773l-326.4-230.827 124.16-377.6-327.68 235.093-325.973-236.373 124.16 376.747zM266.24 490.667l165.12-114.347-61.867-186.453 163.413 118.187 165.973-121.173-62.72 191.147 161.707 112.64h-199.68l-63.573 195.84-64-195.84h-204.373z" />
<glyph unicode="&#xe050;" d="M0 576h408.747l125.44 384h1.28l124.587-384h402.773l-326.4-230.827 124.16-377.6-327.68 235.093-325.973-236.373 124.16 376.747z" />
<glyph unicode="&#xe051;" d="M68.053 244.48q-1.92 77.227 52.693 131.84l89.173 89.173q19.627-65.28 67.84-113.493l-66.56-66.56q-17.92-20.48-14.933-43.307t21.333-41.6l69.973-69.973q19.627-19.2 44.8-23.467t44.8 12.373l223.573 224q16.64 19.2 12.373 44.373t-23.467 44.373l-116.053 116.053 90.453 90.453 0.853-0.427 115.2-115.2q38.827-38.827 53.973-88.32t4.053-97.707-46.933-84.053l-223.573-224q-53.76-53.333-133.12-50.133t-137.387 61.227l-69.973 69.973q-57.173 57.173-59.093 134.4zM269.013 579.2q-11.733-47.573 2.347-95.787t51.627-86.187l0.427-0.427 119.893-120.32 90.88 90.88-119.893 119.467-0.853 1.28q-18.347 18.347-21.12 40.96t14.72 43.093l224 224q12.373 12.373 28.587 14.507t30.293-4.053 25.6-17.707l69.973-69.973q19.627-19.2 23.893-44.373t-12.373-44.373l-66.987-66.987q47.787-50.347 66.56-114.773l90.88 91.307q54.187 54.613 50.987 132.48t-62.507 137.173l-69.973 69.973q-57.173 57.173-133.973 59.307t-131.413-52.053l-224-224q-35.84-35.84-47.573-83.413z" />
<glyph unicode="&#xe052;" d="M-107.52 427.093q2.56 4.693 7.893 13.227t23.893 34.56 39.467 51.2 55.040 59.307 70.613 63.573 86.187 59.52 101.76 51.2 117.12 34.347 132.48 13.227q85.76 0 167.040-20.907t142.72-54.4 115.84-74.24 91.733-81.28 64.427-74.027 39.893-54.4l12.8-20.907q-6.4-6.827-17.92-18.133t-49.493-44.587-77.867-63.36-99.627-66.773-118.4-63.147-130.987-44.587-140.16-18.133q-53.333 0-109.227 10.88t-105.387 29.44-97.92 42.453-89.387 50.347-77.653 52.693-64.64 50.133-48.427 42.453-31.147 29.653zM11.947 427.093q127.147-115.627 269.653-177.493-46.080 46.933-71.68 108.587t-25.6 130.347q0 26.453 5.12 59.307-105.387-55.040-177.493-120.747zM271.36 488.533q0-69.547 34.133-128.213t93.013-92.8 128.427-34.133q69.12 0 128 34.133t93.013 92.8 34.133 128.213q0 55.040-23.893 107.52-67.84 23.040-134.827 33.28 34.133-23.467 54.187-60.587t20.053-80.213q0-70.827-49.92-120.96t-120.747-50.133-120.96 50.133-50.133 120.96q0 43.093 20.053 80t54.187 60.8q-65.28-10.667-135.68-35.84-23.040-50.773-23.040-104.96zM408.32 442.453q15.787-40.533 49.92-62.293l31.573 31.147q-19.2 9.387-31.573 26.88t-15.36 38.827zM768 244.907q90.027 36.267 167.253 87.467t125.013 94.72q-30.72 27.733-82.56 61.867t-114.56 64q6.4-34.987 6.4-64.427 0-69.973-26.88-132.907t-74.667-110.72z" />
<glyph unicode="&#xe053;" d="M-111.36 434.773q2.56 4.693 7.893 13.227t23.893 34.347 39.467 50.987 55.040 59.307 70.827 63.36 86.187 59.093 101.76 50.987 117.12 34.347 132.267 13.227q82.773 0 177.92-26.027l69.12 172.373h106.24l-400.64-1024h-107.093l70.827 184.32q-60.587 9.387-123.947 31.573t-115.84 50.56-101.76 60.587-86.4 62.293-65.493 54.827-42.88 39.68zM8.107 435.627q48.213-44.373 117.547-93.013t152.107-84.907q-46.080 47.36-71.68 109.013t-25.6 129.92q0 28.587 5.547 59.733-105.813-55.040-177.92-120.747zM267.947 496.64q0-95.573 62.72-167.040t155.733-85.12l32.427 81.92q-69.547 1.707-118.187 51.2t-48.64 119.040q0 43.093 20.053 80.213t54.187 60.587q-64.427-9.813-135.68-35.413-22.613-49.92-22.613-105.387zM404.48 450.987q15.36-40.533 50.347-62.293l31.147 31.147q-19.2 9.387-31.573 26.667t-15.36 39.040zM610.56 124.587l66.133 168.533q46.933 35.84 74.24 89.173t27.307 114.347q0 20.907-4.267 45.227l73.813 189.013q41.813-22.613 81.493-51.413t69.76-56.32 56.533-55.467 44.587-51.2 31.573-41.6 19.413-28.587l6.4-10.667q-5.12-5.547-14.933-15.147t-41.6-37.973-65.493-54.827-84.907-60.373-101.973-60.587-114.133-49.493-123.947-32.64zM764.16 253.44q90.453 36.267 167.893 87.467t124.373 94.72q-30.72 27.733-82.56 61.867t-114.56 64q6.4-31.147 6.4-64.853 0-69.973-26.88-132.907t-74.667-110.293z" />
<glyph unicode="&#xe054;" d="M-56.107 792.747q2.347 26.88 22.827 43.947l179.2 153.173q20.48 17.067 48.853 13.867t45.867-24.107l62.293-72.96q-87.893-34.56-159.787-95.36t-120.533-140.587l-10.667 12.373-53.333 62.293q-17.067 20.48-14.72 47.36zM42.667 405.333q0 95.147 37.333 182.187t100.053 149.76 149.76 100.053 182.187 37.333q95.573 0 182.4-37.333t149.76-100.267 100.053-149.76 37.12-181.973q0-63.573-16.853-124.587t-47.147-112.427-73.6-94.72-94.72-73.6-112.427-47.147-124.587-16.853q-95.147 0-181.973 37.12t-149.76 100.053-100.267 149.76-37.333 182.4zM170.667 405.333q0-69.12 27.093-132.48t72.747-109.013 109.013-72.747 132.48-27.093 132.48 27.093 109.013 72.747 72.747 109.013 27.093 132.48-27.093 132.48-72.747 109.013-109.013 72.747-132.48 27.093-132.48-27.093-109.013-72.747-72.747-109.013-27.093-132.48zM341.333 384v40.533q0 8.96 6.187 16.213t15.147 7.253h74.667q2.56 7.68 7.040 13.227t6.187 7.253 9.813 6.4 8.96 5.12v159.147q0 8.96 6.4 15.573t14.933 6.613h41.813q8.96 0 15.573-6.613t6.613-15.573v-160q17.92-11.947 30.507-31.787t12.587-42.027q0-35.413-25.173-60.373t-60.587-24.96q-23.467 0-42.88 11.52t-30.507 31.147h-75.947q-8.96 0-15.147 6.187t-6.187 15.147zM724.48 904.96l61.867 74.24q17.067 20.48 45.227 23.893t49.067-13.227l180.053-151.467q20.907-17.067 23.467-43.947t-14.507-47.36l-66.56-79.787q-48.213 80.213-119.893 141.653t-158.72 96z" />
<glyph unicode="&#xe055;" d="M0 448q0 104.107 40.533 198.827t109.227 163.413 163.413 109.227 198.827 40.533 198.827-40.533 163.413-109.227 109.227-163.413 40.533-198.827-40.533-198.827-109.227-163.413-163.413-109.227-198.827-40.533-198.827 40.533-163.413 109.227-109.227 163.413-40.533 198.827zM128 448q0-78.080 30.507-149.12t81.92-122.453 122.453-81.92 149.12-30.507 149.12 30.507 122.453 81.92 81.92 122.453 30.507 149.12-30.507 149.12-81.92 122.453-122.453 81.92-149.12 30.507-149.12-30.507-122.453-81.92-81.92-122.453-30.507-149.12zM298.667 427.52v40.96q0 8.96 6.187 15.573t15.147 6.613h117.76q12.373 17.92 32.213 30.507t42.027 12.587q8.107 0 24.32-4.267l138.24 138.24q5.973 5.973 14.933 5.973t14.933-5.973l29.44-29.867q6.4-5.973 6.4-14.933t-6.4-15.36l-139.093-139.52q2.56-12.8 2.56-20.48 0-35.413-24.96-60.373t-60.373-24.96q-22.187 0-42.027 12.587t-32.213 30.507h-117.76q-8.96 0-15.147 6.613t-6.187 15.573z" />
<glyph unicode="&#xe056;" d="M42.667 411.307q0 95.147 37.333 182.187t100.053 149.76 149.76 100.053 182.187 37.333q95.573 0 182.4-37.333t149.76-100.267 100.053-149.76 37.12-181.973q0-63.573-16.853-124.587t-47.147-112.427-73.6-94.72-94.72-73.6-112.427-47.147-124.587-16.853q-95.147 0-181.973 37.12t-149.76 100.053-100.267 149.76-37.333 182.4zM170.667 411.307q0-69.547 27.093-132.693t72.747-108.8 109.013-72.747 132.48-27.093 132.48 27.093 109.013 72.747 72.747 108.8 27.093 132.693q0 69.12-27.093 132.48t-72.747 109.013-109.013 72.747-132.48 27.093-132.48-27.093-109.013-72.747-72.747-109.013-27.093-132.48zM426.667 411.307q0 23.040 11.52 42.453t31.147 30.933v155.307q0 8.96 6.187 15.147t15.147 6.187h42.667q8.96 0 15.147-6.187t6.187-15.147v-155.307q19.627-11.52 31.147-30.933t11.52-42.453q0-23.467-11.52-42.88t-31.147-30.933v-37.973q0-8.96-6.187-15.573t-15.147-6.613h-42.667q-8.96 0-15.147 6.613t-6.187 15.573v37.973q-19.627 11.52-31.147 30.933t-11.52 42.88zM426.667 960v105.387q0 8.96 6.187 15.787t15.147 6.827h128q8.96 0 15.147-6.827t6.187-15.787v-105.387q-31.147 3.84-85.333 3.84-53.76 0-85.333-3.84zM854.187 831.147l63.147 63.147q6.4 6.4 15.36 6.4t14.933-6.4l60.587-60.16q5.973-6.4 5.973-15.147t-5.973-15.147l-63.573-63.147q-20.053 26.027-42.24 48.213t-48.213 42.24z" />
<glyph unicode="&#xe057;" d="M-42.667 192v469.333q0 34.987 25.173 60.16t60.16 25.173h546.987q38.4 40.107 90.24 62.72t109.44 22.613q58.027 0 110.080-22.827t90.453-63.36q32.427-3.413 54.613-27.52t22.187-56.96v-469.333q0-34.987-25.173-60.16t-60.16-25.173v-42.667l-64-42.667-64 42.667v42.667h-682.667v-42.667l-64-42.667-64 42.667v42.667q-34.987 0-60.16 25.173t-25.173 60.16zM42.667 362.667h469.333v42.667h-469.333v-42.667zM42.667 448h469.333v42.667h-469.333v-42.667zM54.613 320q11.52-19.2 30.933-30.933t42.453-11.733h384v42.667h-457.387zM54.613 533.333h457.387v42.667h-384q-23.040 0-42.453-11.733t-30.933-30.933zM426.667 789.333v42.667h145.493q-21.76-20.48-38.4-42.667h-107.093zM528.213 998.827l30.293 30.293 128.853-128.853q-21.76-6.827-42.667-17.92zM601.6 554.667q0-77.653 55.040-132.693t132.693-55.040 132.693 55.040 55.040 132.693-55.040 132.693-132.693 55.040-132.693-55.040-55.040-132.693zM644.267 554.667q0 26.027 10.24 52.053 17.92-26.453 49.493-26.453 24.747 0 42.24 17.493t17.493 42.24q0 31.573-26.453 49.493 26.027 10.24 52.053 10.24 60.16 0 102.613-42.453t42.453-102.613-42.453-102.613-102.613-42.453-102.613 42.453-42.453 102.613zM768 916.053v171.947h42.667v-171.947q-3.413 0.427-21.333 0.427t-21.333-0.427zM891.733 900.267l128.853 128.853 29.867-30.293-116.48-116.48q-20.48 11.093-42.24 17.92zM1006.507 832h145.493v-42.667h-107.093q-16.64 22.187-38.4 42.667z" />
<glyph unicode="&#xe058;" d="M-0.427 449.28q0 104.107 40.533 198.827t109.227 163.413 163.413 109.227 198.827 40.533 198.827-40.747 163.413-109.44 109.227-163.413 40.533-198.827q0-10.667-0.64-20.693t-1.493-16.853-2.987-21.973-3.413-26.667h-129.707l4.267 26.667t3.413 22.4 1.707 16.427 0.853 20.693q0 78.080-30.507 149.333t-81.92 122.88-122.453 82.133-149.12 30.507-149.12-30.507-122.453-81.92-81.92-122.453-30.507-149.12 30.293-149.12 81.707-122.453 122.667-81.92 149.76-30.507q62.293 0.427 109.44 14.933t96.64 46.080l-64.853 90.453q-5.12 7.253-2.56 12.373t11.52 4.693h291.84q8.533 0 13.013-5.973t1.92-14.507l-94.293-274.773q-2.56-8.533-8.107-9.6t-10.667 6.187l-63.147 87.467-2.133-1.707q-62.293-40.533-136.96-62.080t-141.653-21.547q-109.653 0-205.653 40.533t-162.987 109.44-105.387 162.987-38.4 198.613zM298.667 427.52v40.96q0 8.96 6.187 15.573t15.147 6.613h117.76q12.373 17.92 32.213 30.507t42.027 12.587q8.107 0 24.32-4.267l137.813 138.24q6.4 5.973 15.36 5.973t14.933-5.973l29.44-29.867q6.4-5.973 6.4-14.933t-6.4-15.36l-139.093-139.52q2.56-12.8 2.56-20.48 0-35.413-24.96-60.373t-60.373-24.96q-22.187 0-42.027 12.587t-32.213 30.507h-117.76q-8.96 0-15.147 6.613t-6.187 15.573z" />
<glyph unicode="&#xe059;" d="M-170.667 490.24v213.333q0 17.493 12.587 30.293t30.080 12.8v21.333q0 8.96 6.187 15.147t15.147 6.187h106.667v24.747q0 20.053 11.947 35.627t30.72 21.547v174.080h938.667v-174.080q18.773-5.973 30.72-21.547t11.947-35.627v-24.747h106.667q8.96 0 15.147-6.187t6.187-15.147v-21.333q17.493 0 30.080-12.8t12.587-30.293v-213.333q0-17.493-12.587-29.867t-30.080-12.373v-21.333q0-8.96-6.187-15.147t-15.147-6.187h-106.667v-490.667q0-8.96-6.187-15.147t-15.147-6.187h-85.333q-8.96 0-15.147 6.187t-6.187 15.147v64h-768v-64q0-8.96-6.187-15.147t-15.147-6.187h-85.333q-8.96 0-15.147 6.187t-6.187 15.147v490.667h-106.667q-8.96 0-15.147 6.187t-6.187 15.147v21.333q-17.493 0-30.080 12.373t-12.587 29.867zM42.667 229.973l42.667-37.973h170.667v84.907l-213.333 42.667v-89.6zM85.333 523.947q0-8.533 5.973-17.067t14.080-11.52q5.547-2.133 16.213-5.547t48.64-12.373 81.28-16 113.92-12.587 146.56-5.547 145.707 5.333 115.2 13.013 80 15.36 49.92 12.8l15.787 5.547q8.107 2.987 14.080 11.52t5.973 17.067v200.96q0 8.96-6.187 15.36t-15.147 6.4h-810.667q-8.96 0-15.147-6.4t-6.187-15.36v-200.96zM128 106.667h128v42.667h-128v-42.667zM298.667 234.667h426.667v42.667h-426.667v-42.667zM298.667 320h426.667v42.667h-426.667v-42.667zM384 21.333h256v85.333h-256v-85.333zM768 106.667h128v42.667h-128v-42.667zM768 192h170.667l42.667 37.973v89.6l-213.333-42.667v-84.907z" />
<glyph unicode="&#xe060;" d="M-42.667-64v170.667h810.667l256 256v-170.667l-42.667-42.667v42.667l-42.667-42.667v-42.667l-85.333-85.333v42.667l-42.667-42.667v-42.667l-42.667-42.667h-170.667v42.667h-128v-42.667h-170.667v42.667h-128v-42.667h-213.333zM42.667 149.333v128h298.667v-128h-298.667zM42.667 320v170.667h298.667v-170.667h-298.667zM42.667 533.333v170.667h298.667v-170.667h-298.667zM42.667 746.667v55.467q0 16.213 3.2 26.24t14.72 21.547l67.413 67.413h298.667q-46.080-46.507-66.133-66.133-13.653-13.227-16.427-22.187t-2.773-26.453v-55.893h-298.667zM170.667 960q54.187 53.76 70.827 70.827 3.413 3.413 5.973 5.547t4.48 3.84 5.12 2.56 4.693 1.493 5.973 0.853 6.4 0.213h280.533l-85.333-85.333h-298.667zM426.667 149.333v128h298.667l85.333 85.333v-128l-85.333-85.333h-298.667zM426.667 320v170.667h298.667l85.333 85.333v-170.667l-85.333-85.333h-298.667zM426.667 533.333v170.667h298.667l85.333 85.333v-170.667l-85.333-85.333h-298.667zM426.667 746.667v55.893q0 12.373 0.427 17.28t4.907 13.44 13.867 17.92l66.133 66.133h275.2q23.467 0 23.467-22.613v-62.72l-85.333-85.333h-298.667zM554.667 960l85.333 85.333h256q23.893 0 33.28-9.6t9.387-33.067v-42.667l-85.333-85.333v43.52q0 21.333-9.6 31.573t-33.067 10.24h-256zM853.333 277.333v128l85.333 85.333v-128zM853.333 448v170.667l85.333 85.333v-170.667zM853.333 661.333v170.667l85.333 85.333v-170.667z" />
<glyph unicode="&#xe061;" d="M0 448q0 104.107 40.533 198.827t109.227 163.413 163.413 109.227 198.827 40.533 198.827-40.533 163.413-109.227 109.227-163.413 40.533-198.827-40.533-198.827-109.227-163.413-163.413-109.227-198.827-40.533-198.827 40.533-163.413 109.227-109.227 163.413-40.533 198.827zM128 448q0-78.080 30.507-149.12t81.92-122.453 122.453-81.92 149.12-30.507 149.12 30.507 122.453 81.92 81.92 122.453 30.507 149.12-30.507 149.12-81.92 122.453-122.453 81.92-149.12 30.507-149.12-30.507-122.453-81.92-81.92-122.453-30.507-149.12zM279.040 215.040q-2.987 2.987 0.427 11.093l133.12 293.12q3.84 8.107 11.947 16.213t16.213 11.947l293.12 133.12q8.107 3.413 11.093 0.427t-0.427-11.093l-133.12-293.12q-3.84-8.107-11.947-16.213t-16.213-11.947l-293.12-133.12q-8.107-3.413-11.093-0.427zM461.653 448q0-20.48 14.933-35.413t35.413-14.933 35.413 14.933 14.933 35.413-14.933 35.413-35.413 14.933-35.413-14.933-14.933-35.413z" />
<glyph unicode="&#xe062;" d="M85.333 362.667v85.333h853.333v-85.333h-384v-177.067q74.667-15.36 122.667-60.8t48-103.467q0-46.507-31.36-85.76t-85.333-62.080-117.973-22.827-117.973 22.827-85.333 62.080-31.36 85.76q0 58.027 48 103.467t122.667 60.8v177.067h-341.333zM106.667 490.667l64 384h21.333q0 175.787 78.933 208.64 59.307 24.747 138.667-37.547l17.067 17.067 81.493-81.493-60.16-60.16-81.493 81.493 12.8 12.8q-56.747 43.093-92.16 28.587-25.173-10.667-38.827-54.4t-13.653-114.987h618.667l64-384h-810.667z" />
<glyph unicode="&#xe063;" d="M-17.067 245.973q11.947 79.573 68.267 135.893l476.373 476.373t9.387 8.96 8.747 8.107 9.6 8.533 9.387 7.467 10.24 7.893 9.813 6.827 10.88 7.040q66.987 40.533 146.133 45.867t150.4-27.093q48.64-22.187 85.12-58.88t56.747-80 27.093-92.8-1.067-97.493-30.933-94.293-59.733-82.987l-138.667-138.667t-162.773-162.987-138.453-138.24q-0.427-0.427-2.773-2.987t-3.627-3.413-3.413-2.133-4.267-1.28q-7.253 0-17.493 9.173t-21.547 22.827-13.867 16.213q-6.827 7.68 0 15.36 72.533 72.533 217.173 216.747t216.747 216.747q77.653 78.507 84.48 165.973 3.84 54.613-17.28 104.32t-63.36 84.053-96.427 44.16q-43.52 7.68-81.493 0.853t-75.733-32.427-58.453-43.733-60.8-58.667l-296.107-296.107q-11.093-11.093-35.413-33.493t-40.107-37.333-36.267-38.827-31.787-43.733-17.92-45.44-2.773-50.347q5.973-42.24 33.92-70.613t63.573-36.48 75.093 1.92 68.053 38.613l480.853 480.853q16.64 16.64 20.267 35.84t-4.693 33.28-21.76 22.613-32.427 5.12-35.2-19.627q-10.667-8.96-29.44-28.8t-20.907-21.973l-211.627-211.627t-57.6-57.173q-1.707-1.707-5.12-5.547t-6.4-7.253-7.253-7.253-7.893-5.76-7.68-1.707-7.040 3.2l-44.373 44.373q-2.987 3.413-2.987 7.68t2.987 7.253q19.627 19.627 100.693 101.973t149.333 150.827 93.013 91.093q30.293 27.733 65.707 39.467t71.68 4.907q41.387-7.68 68.053-36.053t33.92-63.787-3.2-73.813-38.187-66.133q-8.533-8.533-18.347-18.133t-21.547-21.547-18.133-18.347l-277.333-277.333q-16.213-16.213-47.573-50.133t-52.907-56.533-52.907-48.213-59.947-39.253q-37.547-18.347-79.573-22.187t-80.853 6.187-72.96 34.773-56.32 60.587q-40.96 69.12-29.013 148.693z" />
<glyph unicode="&#xe064;" d="M64 405.333q0 120.32 59.307 222.507t159.573 161.92q24.32 17.067 41.387 14.293t17.067-28.8v-75.093q0-12.373-3.627-20.907t-7.040-11.733-10.027-7.040-7.893-5.12q-56.32-45.227-88.533-110.507t-32.213-139.52q0-65.28 25.387-124.373t68.267-101.973 101.973-68.267 124.373-25.387 124.373 25.387 101.973 68.267 68.267 101.973 25.387 124.373q0 74.24-32 139.093t-87.467 109.653q-1.28 0.853-6.613 4.48t-8.32 6.4-7.040 7.68-5.973 11.733-1.92 15.36v78.080q0 16.64 8.747 22.4t20.693 2.773 25.6-11.093q101.547-59.307 161.92-162.133t60.373-224.427q0-90.88-35.627-173.867t-95.573-142.933-142.933-95.573-173.867-35.627-173.867 35.627-142.933 95.573-95.573 142.933-35.627 173.867zM426.667 576v341.333q0 17.493 12.587 30.080t30.080 12.587h85.333q17.493 0 30.080-12.587t12.587-30.080v-341.333q0-17.493-12.587-30.080t-30.080-12.587h-85.333q-17.493 0-30.080 12.587t-12.587 30.080z" />
<glyph unicode="&#xe065;" d="M120.747 618.667q0 112.213 49.28 201.387t137.813 139.52 200.32 50.347h3.84q84.053 0 155.947-29.44t122.24-81.067 78.933-124.16 28.587-156.587q0-34.56-6.827-67.413t-15.36-55.893-25.387-51.2-27.307-42.24-30.507-40.533q-19.627-25.6-28.373-37.76t-23.253-35.627-20.907-41.387-11.733-43.733-5.333-53.547q0-42.667-20.053-71.253v-56.747q0-5.12-10.667-15.787t-21.333-18.773l-10.667-8.107v-21.333q0-8.96-6.4-15.147t-15.36-6.187h-213.333q-8.96 0-14.933 6.187t-5.973 15.147v21.333q-4.693 3.413-11.733 8.96t-18.987 17.067-11.947 16.64v49.493q-26.88 29.013-26.88 78.507 0 27.733-5.333 53.333t-11.733 43.733-20.693 41.387-23.253 35.84-28.16 37.76q-19.627 25.6-30.293 40.32t-27.093 42.453-24.96 50.987-15.36 56.107-6.827 67.413zM206.080 618.667q0-32.853 6.187-60.8t20.693-54.827 25.813-43.307 34.347-46.72q17.067-22.187 25.813-34.133t23.68-34.773 23.040-41.387 17.067-43.52 13.013-52.267 4.053-57.6h218.88q0 35.84 6.827 69.547t15.573 57.6 25.387 52.053 27.307 43.307 30.72 41.173q41.813 55.467 55.040 77.653 35.413 60.16 35.413 128 0 88.32-40.107 158.507t-109.013 108.8-153.813 38.613q-134.827 0-220.373-85.547t-85.547-220.373z" />
<glyph unicode="&#xe066;" d="M0 558.933v379.733q0 8.96 6.4 15.147t14.933 6.187h379.733q8.96 0 19.627-4.48t17.067-10.453l571.307-571.307q5.973-6.4 5.973-15.36t-5.973-14.933l-392.533-392.107q-5.973-6.4-14.933-6.4t-14.933 6.4l-571.307 571.307q-6.4 5.973-10.88 16.853t-4.48 19.413zM128 746.667q0-34.987 25.173-60.16 24.747-25.173 59.947-25.173t60.373 25.173 25.173 60.16-25.173 60.16-60.373 25.173-59.947-25.173q-25.173-25.173-25.173-60.16z" />
<glyph unicode="&#xe067;" d="M-128 558.933v379.733q0 8.96 6.187 15.147t15.147 6.187h379.733q8.533 0 19.413-4.48t16.853-10.453l571.307-571.307q6.4-6.4 6.4-15.36t-6.4-14.933l-392.107-392.107q-5.973-6.4-14.933-6.4t-15.36 6.4l-571.307 571.307q-5.973 5.973-10.453 16.853t-4.48 19.413zM0 746.667q0-34.987 25.173-60.16 24.747-25.173 60.16-25.173t60.16 25.173 25.173 60.16-25.173 60.16q-24.747 25.173-60.16 25.173t-60.16-25.173q-25.173-25.173-25.173-60.16zM379.307 960h128.427q9.813 0 25.173-2.347t20.053-5.333q11.52-6.4 27.733-22.613l541.013-541.013q11.947-11.947 12.373-29.013t-12.373-31.147l-378.88-378.88q-6.4-5.973-15.147-4.48t-15.147 7.893l-68.267 68.693 307.2 306.773q16.213 17.067 16 30.507t-16 29.653z" />
<glyph unicode="&#xe068;" d="M42.667 320v89.173l3.413 8.107q54.613 149.76 171.947 188.587 37.973 12.8 81.493 12.8 32.853 0 62.72-7.467t52.267-19.84 42.24-28.587 33.707-34.133 25.173-35.84 18.56-34.133 11.947-28.587 6.827-19.627l1.707-7.68v-82.773h-42.667v-341.333l-44.373-42.667h-338.773l-43.52 42.667v341.333h-42.667zM105.813 405.333h385.707q-0.853 3.413-2.987 8.96t-9.813 21.76-17.067 31.147-25.6 32.853-34.987 30.933-45.44 21.973-56.107 8.96q-29.867 0-56.533-8.533t-45.653-22.4-34.987-30.507-26.24-33.493-17.28-30.72-10.027-22.4zM554.667-64l42.667 170.667h426.667l42.667-170.667h-512zM597.333 128v74.667q0 17.493 7.253 24.747t24.747 7.253h138.667v693.333q0 17.493 12.587 30.080t30.080 12.587 30.080-12.587 12.587-30.080v-693.333h117.333q20.48 0 36.907-7.893t16.427-24.107v-74.667h-426.667z" />
<glyph unicode="&#xe069;" d="M-42.667 128v576h42.667v-426.667h42.667v426.667h42.667v-256h42.667v256h42.667v-256h42.667v256h42.667v-256h42.667v256h42.667v-256h42.667v256h42.667v-426.667h42.667v426.667h42.667v-256h42.667v256h42.667v-256h42.667v256h42.667v-256h42.667v256h42.667v-256h42.667v256h42.667v-426.667h42.667v426.667h42.667v-256h42.667v256h42.667v-256h42.667v256h42.667v-576q0-8.96-6.187-15.147t-15.147-6.187h-1109.333q-8.96 0-15.147 6.187t-6.187 15.147z" />
<glyph unicode="&#xe070;" d="M0 593.92v125.867q0 9.387 6.4 18.133t14.933 8.747h68.267q-2.56 0 12.587 75.947t20.267 96.427q11.093 39.253 46.293 60.16t74.453 9.813q10.667-2.987 22.187-8.107t26.24-12.587 21.12-10.453q69.973-31.573 159.573-72.533 20.48-12.373 34.133-30.293 13.653 18.347 33.707 29.867l153.6 70.4q8.107 3.413 29.653 13.867t33.493 15.573q42.24 17.493 82.133-2.347t52.267-63.787q35.84-171.947 32.427-171.947h78.933q8.533 0 14.933-8.533t6.4-17.92v-126.293q0-8.533-5.973-13.227t-15.36-4.693h-64v-128h-341.333v298.667h-170.667v-298.667h-341.333v128h-64q-9.387 0-15.36 4.693t-5.973 13.227zM85.333-64v341.333h341.333v-341.333h-341.333zM195.84 758.613q-1.28-3.84 1.067-7.893t5.76-4.053h210.773l5.973 17.067-196.693 118.187zM597.333-64v341.333h341.333v-341.333h-341.333zM603.733 764.16l5.547-17.493h210.347q3.84 0 6.187 4.267t1.493 8.107l-26.88 124.16z" />
<glyph unicode="&#xe072;" d="M42.667-64v864l149.333 160h618.667q41.813 0 81.493-24.747t64.427-64.427 24.747-81.493v-640l-85.333-85.333v682.667q0 128-128 128h-523.52l-85.333-85.333h523.52q52.907 0 90.453-37.547t37.547-90.453v-597.333q0-52.907-37.547-90.453t-90.453-37.547h-640z" />
<glyph unicode="&#xe073;" d="M213.333-37.547v976.213q0 8.96 6.4 15.147t14.933 6.187h597.333q8.96 0 15.147-6.187t6.187-15.147v-965.547q0-13.653-8.32-16.64t-14.293 4.267l-294.827 263.253-302.507-267.947q-5.973-6.4-13.013-4.267t-7.040 10.667z" />
<glyph unicode="&#xe074;" d="M-122.453 623.36q128.427 128.427 298.027 200.107t357.76 71.68q189.013 0 359.040-72.107t298.453-200.96l-86.187-86.187q-111.36 112.213-258.987 174.72t-312.32 62.507q-163.413 0-310.827-62.293t-258.773-173.653zM46.933 453.973q95.573 95.147 221.227 148.267t265.173 53.12q140.373 0 266.453-53.547t221.653-149.12l-91.307-91.307q-77.653 78.080-180.267 121.6t-216.533 43.52q-113.493 0-215.68-43.307t-179.413-120.533zM221.44 279.467q61.44 61.013 141.867 95.147t170.027 34.133q90.027 0 171.093-34.56t142.507-96l-82.773-82.773q-44.8 45.227-104.533 70.613t-126.293 25.387q-65.707 0-124.8-24.96t-104.32-69.76zM387.84 113.493q28.16 28.16 65.92 43.947t79.573 15.787q42.24 0 80.427-16.213t66.773-45.227l-145.493-145.92z" />
<glyph unicode="&#xe075;" d="M42.667 832q0 17.493 12.587 30.080t30.080 12.587h128v85.333h597.333v-85.333h128q17.493 0 30.080-12.587t12.587-30.080q0-83.627-2.56-139.093t-5.76-90.027-12.587-59.947-16.853-37.973-24.533-34.773q-35.413-46.507-68.053-74.027t-76.16-45.44q-47.787-19.2-100.48-29.227t-89.387 1.067q-22.187-41.387-30.293-81.493v-49.067q0-45.653 33.28-85.333h52.053v-42.667h42.667v-128h-341.333v128h42.667v42.667h52.053q33.28 38.827 33.28 85.333v40.533q-9.387 40.533-39.253 87.893-67.84-3.413-130.987 14.080t-116.907 57.173-88.32 97.707q-14.933 25.173-24.96 58.24t-15.147 61.867-7.68 73.813-2.987 71.467-0.427 77.227zM126.080 702.293q1.493-42.667 6.827-79.36t24.533-74.24 52.053-71.253q23.467-18.773 38.187-28.8t46.080-21.76 72.32-17.707q-32.427 41.813-50.133 65.92t-40.96 62.933-36.48 74.24q-17.493 46.080-21.333 75.947t-3.84 85.76v15.36h-86.613q-2.133-44.373-0.64-87.040zM642.987 407.467q58.027 4.693 99.2 21.12t73.173 48.853q38.827 38.4 60.373 89.813t21.547 136.747q0 10.24-0.427 41.813t-0.427 43.52h-85.76q0-9.387 0.213-31.573t0-29.653-1.067-24.32-2.987-25.6-5.76-23.467-9.6-28.16-14.080-29.653q-11.093-21.76-23.253-41.813t-28.16-41.6-25.173-33.707-30.080-37.973-27.733-34.347z" />
<glyph unicode="&#xe076;" d="M-81.493 720.64q5.547 16.64 19.84 23.040t31.787 0.853l157.867-40.533 23.893-42.667h354.987l-80.213 341.333h170.667l237.653-85.333 146.347-170.667-146.347-298.667h-480l284.587-298.667h127.573q1.28 0 10.453-0.213t11.733-0.213q44.373 0 75.52-31.147t31.147-75.093q0-44.373-31.147-75.52t-75.52-31.147q-43.947 0-75.093 31.36t-31.147 75.307q0 21.333 2.133 21.333h-81.92l-164.693 172.8-112.213-88.747q14.933-31.147 14.933-64.427 0-61.867-43.52-105.387t-105.387-43.52-105.387 43.52-43.52 105.387 43.52 105.387 105.387 43.52q40.107 0 76.373-21.333l110.933 87.467-142.507 149.333h-109.227l-45.227 184.747-136.107 35.84q-17.067 5.547-25.173 20.48t-2.987 31.573zM128.853 83.627q0-26.453 18.56-45.013t45.013-18.56q26.027 0 44.8 18.56t18.773 45.013-18.56 45.013-45.013 18.56-45.013-18.56-18.56-45.013zM762.027 42.667q0-11.52 8.107-19.413t19.2-7.893q11.52 0 19.413 7.893t7.893 19.413q0 11.093-7.893 19.2t-19.413 8.107q-11.093 0-19.2-8.107t-8.107-19.2z" />
<glyph unicode="&#xe077;" d="M0 170.667v256q0 99.413 42.24 193.707t112 164.053 164.053 112 193.707 42.24 193.707-42.24 164.053-112 112-164.053 42.24-193.707v-256q0-8.96-6.187-15.147t-15.147-6.187h-42.667q-8.96 0-15.147 6.187t-6.187 15.147v256q0 81.493-35.413 153.813t-94.080 122.24-136.32 78.933-160.853 29.013-160.853-29.013-136.32-78.933-94.080-122.24-35.413-153.813v-256q0-8.96-6.187-15.147t-15.147-6.187h-42.667q-8.96 0-15.147 6.187t-6.187 15.147zM128-42.667v340.48q0 22.187 14.507 22.187h107.947q8.96 0 15.147-6.4t6.187-15.36q2.56-7.253 5.973-20.693t9.387-57.813 5.973-91.733-5.333-90.027-10.453-61.867l-5.547-18.773q0-8.96-6.187-15.147t-15.147-6.187h-107.947q-14.507 0-14.507 21.333zM730.88 128q0 47.36 5.333 90.027t10.453 61.44l5.547 18.773q0 8.96 6.187 15.36t15.147 6.4h107.947q14.507 0 14.507-22.187v-340.48q0-21.333-14.507-21.333h-107.947q-8.96 0-15.147 6.4t-6.187 14.933q-2.56 7.253-5.973 20.693t-9.387 58.027-5.973 91.947z" />
<glyph unicode="&#xe078;" d="M0 170.667v256q0 99.413 42.24 193.707t112 164.053 164.053 112 193.707 42.24 193.707-42.24 163.84-112 111.787-164.053 41.813-193.707v-371.2q-0.853-5.547-3.84-14.507t-14.293-30.507-27.733-42.027-47.36-45.867-69.76-45.653-98.347-37.333-129.92-24.747q-10.24-22.187-31.147-35.84t-46.080-13.653h-42.667q-35.413 0-60.373 24.96t-24.96 60.373q0 34.987 25.173 60.16t60.16 25.173h42.667q44.373 0 69.973-36.693 52.48 5.973 97.493 17.493t75.52 24.96 55.68 30.293 39.467 30.933 25.173 29.227 14.72 23.040 5.973 14.293v357.12q0 81.493-35.413 153.813t-94.080 122.24-136.32 78.933-160.853 29.013-160.853-29.013-136.32-78.933-94.080-122.24-35.413-153.813v-256q0-8.96-6.187-15.147t-15.147-6.187h-42.667q-8.96 0-15.147 6.187t-6.187 15.147zM128-42.667v340.48q0 22.187 14.507 22.187h107.947q8.96 0 15.147-6.4t6.187-15.36q2.56-7.253 5.973-20.693t9.387-57.813 5.973-91.733-5.333-90.027-10.453-61.867l-5.547-18.773q0-8.96-6.187-15.147t-15.147-6.187h-107.947q-14.507 0-14.507 21.333zM730.88 128q0 47.36 5.333 90.027t10.453 61.44l5.547 18.773q0 8.96 6.187 15.36t15.147 6.4h107.947q14.507 0 14.507-22.187v-194.987q-61.013-73.813-153.6-99.413-11.52 89.173-11.52 124.587z" />
<glyph unicode="&#xe079;" d="M-58.88-0.213q0 16.853 8.533 32.213l528.213 893.867q8.533 14.933 23.253 23.467t32.213 8.533 32.213-8.533 23.253-23.467l528.213-893.867q8.533-15.36 8.533-32.213t-8.533-31.787-23.467-23.467-32-8.533h-1056.427q-17.067 0-32 8.533t-23.467 23.467-8.533 31.787zM115.627 64h835.413l-417.707 716.8zM469.333 122.453v96q0 6.827 4.693 11.52t11.52 4.693h96q6.4 0 11.093-4.693t4.693-11.52v-96q0-6.4-4.693-11.093t-11.093-4.693h-96q-6.827 0-11.52 4.693t-4.693 11.093zM469.333 474.453v80.213q0 8.533 6.187 14.933t15.147 6.4h85.333q8.96 0 15.147-6.4t6.187-14.933v-80.213q0-16.64-2.987-31.573l-29.013-147.2q-1.28-6.827-7.040-12.587t-12.16-5.76h-25.173q-5.973 0-11.733 5.76t-7.040 12.587l-29.867 145.92q-2.987 14.933-2.987 32.853z" />
<glyph unicode="&#xe080;" d="M0-64v277.333q0 8.96 6.187 15.147t15.147 6.187h128q8.96 0 15.147-6.187t6.187-15.147v-277.333h-170.667zM213.333-64v405.333q0 8.96 6.187 15.147t15.147 6.187h128q8.96 0 15.147-6.187t6.187-15.147v-405.333h-170.667zM426.667-64v533.333q0 8.96 6.187 15.147t15.147 6.187h128q8.96 0 15.147-6.187t6.187-15.147v-533.333h-170.667zM640-64v746.667q0 8.96 6.187 15.147t15.147 6.187h128q8.96 0 15.147-6.187t6.187-15.147v-746.667h-170.667zM853.333-64v1002.667q0 8.96 6.187 15.147t15.147 6.187h128q8.96 0 15.147-6.187t6.187-15.147v-1002.667h-170.667z" />
<glyph unicode="&#xe081;" d="M-74.667 498.347q-2.56 7.68 2.56 14.507l166.4 224.427q5.547 7.253 13.013 8.107t12.587-5.973l166.4-226.987q5.547-7.253 2.987-14.507t-11.52-7.253h-107.093v-256h500.053l98.56-128h-705.28q-8.96 0-15.147 6.187t-6.187 15.147v362.667h-106.24q-8.533 0-11.093 7.68zM258.56 746.667h701.44q8.96 0 15.147-6.187t6.187-15.147v-362.667h107.093q8.96 0 11.52-4.693t-2.987-11.947l-166.4-221.44q-5.12-7.253-12.587-7.253t-13.013 6.827l-166.4 221.867q-5.12 7.253-2.56 11.947t11.093 4.693h106.24v256h-496.213z" />
<glyph unicode="&#xe082;" d="M0 466.56q-1.707-72.32 15.787-145.28l123.733 2.133 8.533 1.28q-29.867 84.053-16.64 177.707t68.693 170.453q58.88 81.493 148.053 123.093t187.307 35.2 182.613-60.587l-61.867-85.333q-5.12-6.827-2.56-11.947t11.52-5.12l277.333 5.12q8.533 0 13.013 5.973t1.92 14.507l-82.347 264.96q-2.56 8.533-8.107 9.387t-10.667-6.4l-63.147-87.040-2.56 1.707q-84.48 55.040-182.613 73.813t-190.507 1.707-177.28-69.547-143.787-134.4q-45.653-63.147-70.187-136.107t-26.24-145.28zM64.853 202.24q-2.56 8.533 1.92 14.507t13.013 5.973l277.333 5.12q8.533 0 11.307-5.12t-2.347-11.947l-61.867-85.333q84.48-54.187 182.613-60.587t187.307 35.2 148.053 123.093q55.467 76.373 68.693 169.387t-15.787 176.64l131.84 2.56q27.733-104.533 7.253-217.387t-88.32-206.293q-58.88-81.92-143.787-134.4t-177.28-69.547-190.507 1.707-182.613 73.813l-2.56 1.707-63.147-87.040q-5.12-7.253-10.667-6.4t-8.533 9.387z" />
<glyph unicode="&#xe083;" d="M18.347 312.32q-37.12 134.827 0 269.227l115.627-66.133q-15.36-85.76 7.68-168.96 22.187-81.067 74.88-143.787t125.653-98.56q8.96 64.427 13.227 88.32 5.12 26.453 26.027 6.827 10.24-9.813 90.453-90.027t92.16-92.587q11.52-12.373 10.88-18.133t-12.16-12.587q-11.947-7.253-116.053-64.427t-117.333-63.573q-14.080-7.68-19.627-5.547t-3.84 16.213l15.787 104.533q-109.653 43.947-190.293 132.48t-113.067 206.72zM91.307 640q7.253 233.387 9.813 259.84 2.987 30.293 26.88 9.813l69.973-58.027q81.92 63.573 178.347 90.027 139.093 35.84 269.227 0.427t226.133-130.56l-115.627-67.84q-71.253 58.88-161.067 78.933t-184.533-4.267q-58.88-16.213-110.933-51.2 61.013-49.92 73.813-60.587 6.4-5.547 8.96-10.667t-0.213-9.6-10.453-6.613q-16.213-4.267-121.6-30.507t-124.587-30.507q-21.76-5.547-28.16-1.92t-5.973 23.253zM639.147-47.787v133.973q65.707 22.613 118.613 66.773t87.893 105.173q57.173 100.267 48.64 216.32-76.373-33.28-91.733-39.253-11.52-4.693-15.787 0t-1.28 17.92q7.68 31.573 22.4 94.72t26.88 114.987 12.587 53.12q4.267 17.067 20.48 7.68 12.8-6.827 239.36-134.827 8.96-5.12 9.173-12.587t-7.040-10.027l-91.733-39.253q13.653-87.040-2.347-172.373t-58.24-160q-49.493-87.040-129.28-149.973t-180.48-90.24q-1.28-0.427-4.053-1.067t-4.053-1.067z" />
<glyph unicode="&#xe084;" d="M-85.333 170.667v85.333q0 8.533 7.253 14.933t16.213 6.4h252.587l512 469.333h150.613v106.667q0 8.533 5.547 11.093t12.373-2.56l222.72-166.4q6.827-5.547 6.827-13.013t-6.827-12.587l-222.72-166.4q-6.827-5.547-12.373-2.987t-5.547 11.52v106.667h-101.12l-512-469.333h-302.080q-8.96 0-16.213 6.187t-7.253 15.147zM-85.333 640v85.333q0 8.533 7.253 14.933t16.213 6.4h302.080l183.893-168.533-94.72-86.613-139.093 127.147h-252.16q-8.96 0-16.213 6.187t-7.253 15.147zM518.827 317.867l94.72 86.613 138.667-127.147h101.12v106.667q0 8.533 5.547 11.093t12.373-2.56l223.147-166.4q7.253-5.547 7.253-13.013t-7.253-12.587l-223.147-166.4q-6.827-5.547-12.373-2.987t-5.547 11.52v106.667h-151.040z" />
<glyph unicode="&#xe085;" d="M-24.747 751.787q-2.56 5.12 2.56 11.947l162.133 220.587q5.12 7.253 12.587 7.253t13.013-6.827l170.24-221.013q5.12-6.827 2.773-11.947t-11.307-5.12h-111.787q0-40.96-4.053-75.093t-12.8-63.787-15.147-46.080-18.347-43.733q-10.667-23.893-15.573-36.693t-11.52-35.413-9.387-47.787-2.773-56.747q0-41.387 6.187-75.733t12.8-52.053 20.267-48.853q11.947-27.307 18.347-43.733t15.147-46.080 12.8-63.787 4.053-75.093h-128q0 31.573-2.773 56.747t-9.387 47.787-11.52 35.413-15.573 36.693q-11.947 27.307-18.347 43.733t-15.147 46.080-12.8 63.787-4.053 75.093 4.053 75.093 12.8 63.787 15.147 46.080 18.347 43.733q13.653 31.147 20.267 48.853t12.8 52.053 6.187 75.733h-100.693q-8.96 0-11.52 5.12zM401.92 751.787q-2.56 5.12 2.56 11.947l162.133 220.587q5.12 7.253 12.587 7.253t13.013-6.827l170.24-221.013q5.12-6.827 2.773-11.947t-11.307-5.12h-111.787q0-40.96-4.053-75.093t-12.8-63.787-15.147-46.080-18.347-43.733q-10.667-23.893-15.573-36.693t-11.52-35.413-9.387-47.787-2.773-56.747q0-41.387 6.187-75.733t12.8-52.053 20.267-48.853q11.947-27.307 18.347-43.733t15.147-46.080 12.8-63.787 4.053-75.093h-128q0 31.573-2.773 56.747t-9.387 47.787-11.52 35.413-15.573 36.693q-11.947 27.307-18.347 43.733t-15.147 46.080-12.8 63.787-4.053 75.093 4.053 75.093 12.8 63.787 15.147 46.080 18.347 43.733q13.653 31.147 20.267 48.853t12.8 52.053 6.187 75.733h-100.693q-8.96 0-11.52 5.12zM828.587 751.787q-2.56 5.12 2.56 11.947l162.133 220.587q5.12 7.253 12.587 7.253t13.013-6.827l170.24-221.013q5.547-6.827 2.987-11.947t-11.52-5.12h-111.787q0-40.96-4.053-75.093t-12.8-63.787-15.147-46.080-18.347-43.733q-10.667-23.893-15.573-36.693t-11.52-35.413-9.387-47.787-2.773-56.747 2.773-56.747 9.387-47.787 11.52-35.413 15.573-36.693q11.947-27.307 18.347-43.733t15.147-46.080 12.8-63.787 4.053-75.093h-128q0 31.573-2.773 56.747t-9.387 47.787-11.52 35.413-15.573 36.693q-11.947 27.307-18.347 43.733t-15.147 46.080-12.8 63.787-4.053 75.093 4.053 75.093 12.8 63.787 15.147 46.080 18.347 43.733q10.667 23.893 15.573 36.693t11.52 35.413 9.387 47.787 2.773 56.747h-100.693q-8.96 0-11.52 5.12z" />
<glyph unicode="&#xe086;" d="M5.973 448q0 78.080 24.32 155.947t72.107 144q58.88 81.92 143.787 134.4t177.28 69.547 190.507-1.707 182.613-73.813l2.56-1.707 63.147 87.040q5.12 7.253 10.667 6.4t8.107-9.387l82.347-264.96q2.56-8.533-1.92-14.507t-13.013-5.973l-277.333-5.12q-8.533 0-11.307 5.12t2.347 11.947l61.867 85.333q-84.48 54.187-182.613 60.587t-187.307-35.2-148.053-123.093q-72.107-99.84-72.107-224.853 0-74.667 29.013-146.133t83.2-125.653q53.76-53.76 123.733-82.56t143.787-29.653q80.64-0.853 155.947 29.867t135.893 100.267q17.92 20.48 48.213 65.28 7.68 11.093 23.253 11.733t30.080-9.173l35.413-23.893q14.507-9.387 19.627-24.533t-2.133-25.813q-7.68-11.52-29.013-39.893t-29.44-38.187q-47.787-57.6-116.693-98.133t-137.6-58.453-133.547-17.493q-98.987 0.853-192 38.827t-165.973 110.507q-42.24 42.24-72.747 91.307t-46.507 97.28-23.253 90.88-7.253 83.627z" />
<glyph unicode="&#xe087;" d="M-85.333 192v725.333q0 17.493 12.587 30.080t30.080 12.587h1109.333q17.493 0 30.080-12.587t12.587-30.080v-725.333q0-17.493-12.587-30.080t-30.080-12.587h-469.333v-42.667q0-23.893 8.747-41.387t21.333-25.6 25.173-12.8 21.547-5.12l8.533-0.427h155.733q5.973 0 10.453-4.48t4.48-10.453v-70.4h-682.667v70.4q0 5.973 4.48 10.453t10.88 4.48h157.44q3.413 0 8.96 0.427t19.84 5.12 25.387 12.8 20.053 25.6 8.96 41.387v42.667h-469.333q-17.493 0-30.080 12.587t-12.587 30.080zM0 277.333h1024v597.333h-1024v-597.333zM981.333 192h42.667v42.667h-42.667v-42.667z" />
<glyph unicode="&#xe088;" d="M42.667-64v864l149.333 160h618.667q41.813 0 81.493-24.747t64.427-64.427 24.747-81.493v-640l-85.333-85.333v682.667q0 128-128 128h-523.52l-85.333-85.333h523.52q52.907 0 90.453-37.547t37.547-90.453v-597.333q0-52.907-37.547-90.453t-90.453-37.547h-640zM228.693 354.347q0-4.053 2.987-7.040l159.573-160q2.987-2.987 7.040-2.987t7.040 2.987l294.4 294.4q6.827 7.253 0 14.080l-66.56 65.707q-6.827 6.827-14.507-0.427l-212.907-212.907q-2.987-3.413-7.253-3.413t-7.253 3.413l-79.36 79.36q-2.987 2.987-7.253 2.987t-7.253-2.987l-65.707-66.133q-2.987-2.987-2.987-7.040z" />
<glyph unicode="&#xe089;" d="M42.667-64v864l149.333 160h618.667q41.813 0 81.493-24.747t64.427-64.427 24.747-81.493v-640l-85.333-85.333v682.667q0 128-128 128h-523.52l-85.333-85.333h523.52q52.907 0 90.453-37.547t37.547-90.453v-597.333q0-52.907-37.547-90.453t-90.453-37.547h-640zM213.333 201.387q0-3.84 2.773-6.613t6.613-2.773h407.893q3.84 0 6.613 2.773t2.773 6.613v43.52q0 14.933-3.84 22.4t-14.933 13.867q-5.973 3.413-69.333 25.813t-82.56 30.507v38.4q14.933 4.267 28.8 22.827t13.867 33.92v84.907q0 36.267-22.613 59.947t-62.72 23.68-62.72-23.68-22.613-59.947v-84.907q0-15.36 13.867-33.92t28.8-22.827v-38.4q-19.2-8.107-82.56-30.507t-69.333-25.813q-11.093-6.4-14.933-13.867t-3.84-22.4v-43.52z" />
<glyph unicode="&#xe090;" d="M0-64v42.667h42.667v42.667h42.667v853.333h853.333v-853.333h42.667v-42.667h42.667v-42.667h-426.667v128h-170.667v-128h-426.667zM85.333 917.333l85.333 85.333h213.333l42.667 42.667h170.667l42.667-42.667h213.333l85.333-85.333h-853.333zM213.333 149.333h170.667v85.333h-170.667v-85.333zM213.333 320h170.667v85.333h-170.667v-85.333zM213.333 490.667h170.667v85.333h-170.667v-85.333zM213.333 661.333h170.667v85.333h-170.667v-85.333zM426.667 149.333h170.667v85.333h-170.667v-85.333zM426.667 320h170.667v85.333h-170.667v-85.333zM426.667 490.667h170.667v85.333h-170.667v-85.333zM426.667 661.333h170.667v85.333h-170.667v-85.333zM640 149.333h170.667v85.333h-170.667v-85.333zM640 320h170.667v85.333h-170.667v-85.333zM640 490.667h170.667v85.333h-170.667v-85.333zM640 661.333h170.667v85.333h-170.667v-85.333z" />
<glyph unicode="&#xe091;" d="M0.213 46.72q0.64 42.027 30.507 71.893l14.933 14.933q5.547 6.4 5.547 14.080-6.827 30.293 3.84 65.493t34.133 58.24l383.147 383.147-47.787 47.36q-10.24 10.24-10.453 24.747t9.6 24.32l60.587 60.16q9.387 9.813 23.893 9.813 14.080 0 25.173-10.24l66.133-66.56q2.56 3.84 5.547 6.827l136.107 136.107q66.133 66.987 120.747 66.987 41.387 0 78.080-36.693l30.293-30.293q21.333-21.76 30.293-44.587t7.040-42.453-12.8-40.96-23.68-37.12-31.147-34.133l-136.107-136.107-6.4-5.12 66.133-66.56q10.24-10.24 10.453-24.533t-9.6-24.107l-60.587-60.587q-9.813-9.813-23.467-9.813-14.080 0-25.6 10.667l-47.36 47.36-383.147-383.147q-18.773-18.773-45.867-29.44t-53.547-10.667q-14.080 0-23.467 2.133-8.533 0-14.507-5.12l-15.36-15.36q-30.293-30.293-72.96-30.293-41.387 0-69.973 28.587-29.013 29.013-28.373 71.040zM136.96 234.667h301.653l226.56 226.56-150.613 151.040z" />
<glyph unicode="&#xe092;" d="M-10.667 448q0 70.827 18.773 138.667t52.48 125.013 82.133 105.6 105.6 82.133 125.013 52.48 138.667 18.773 138.667-18.773 125.227-52.48 105.6-82.133 81.92-105.6 52.48-125.013 18.773-138.667-18.773-138.667-52.48-125.227-81.92-105.6-105.6-81.92-125.227-52.48-138.667-18.773-138.667 18.773-125.013 52.48-105.6 81.92-82.133 105.6-52.48 125.227-18.773 138.667zM97.707 448q0-79.36 28.16-152.107t77.44-127.573 118.187-91.093 147.84-44.8v831.147q-78.933-8.533-147.84-44.8t-118.187-91.093-77.44-127.573-28.16-152.107z" />
<glyph unicode="&#xe093;" d="M37.973 273.493q0 51.627 13.653 101.973t36.907 94.507 52.053 87.467 61.44 88.32 62.293 89.173 57.173 97.92 44.16 107.093q15.787-53.333 43.093-106.88t56.96-97.493 62.293-88.747 61.653-87.893 52.48-87.040 37.333-94.293 13.867-101.973q0-53.76-19.413-102.187t-52.267-83.84-74.88-61.44-88.747-39.040-92.373-13.013-92.16 12.8-88.747 38.613-75.093 60.8-52.267 83.2-19.413 101.973zM125.867 273.493q0.427-35.413 19.2-67.84t54.613-54.187 80.64-23.893q21.333 0.853 27.733 8.747t-1.707 18.133-26.027 17.92q-26.453 11.947-42.667 42.88t-16.213 67.2q0 52.053 7.467 109.653t21.12 98.133q5.547 17.493-8.107 23.893-14.507 7.253-31.147-5.973-8.533-7.253-14.507-17.92-28.587-48.213-49.707-108.16t-20.693-108.587zM668.16 669.44q0 35.413 12.8 69.76t33.28 64.64 42.027 59.733 43.093 66.347 32.64 72.747q9.387-30.72 26.027-62.080t34.347-55.253 36.48-51.2 33.493-50.987 24.107-53.12 9.387-59.307q0-44.373-25.387-79.573t-62.507-52.907-75.947-17.707q-28.587 0-57.387 10.453t-52.693 29.013-38.827 47.36-14.933 62.080zM712.107 669.44q0.427-27.733 21.973-49.493t55.253-23.467q10.667 0.427 13.867 4.48t-0.853 8.96-13.013 9.173q-12.8 5.547-21.12 21.333t-8.32 33.707q0 60.16 14.507 103.68 2.987 10.24-5.973 12.8-10.667 2.987-19.2-9.813l-1.707-2.987q-14.080-23.467-24.747-53.547t-10.667-54.827z" />
<glyph unicode="&#xe094;" d="M-42.667 661.333v170.667h128v-170.667h-128zM128 64v896h170.667v-128h537.173l157.867 158.293 60.587-60.587-158.293-157.867v-537.173h170.667v-170.667h-938.667zM298.667 294.827l366.507 366.507h-366.507v-366.507zM358.827 234.667h366.507v366.507zM725.333-106.667v128h170.667v-128h-170.667z" />
<glyph unicode="&#xe095;" d="M0-64v170.667h42.667v682.667h-42.667v170.667h170.667v-42.667h682.667v42.667h170.667v-170.667h-42.667v-682.667h42.667v-170.667h-170.667v42.667h-682.667v-42.667h-170.667zM42.667-21.333h85.333v85.333h-85.333v-85.333zM42.667 832h85.333v85.333h-85.333v-85.333zM128 106.667h42.667v-42.667h682.667v42.667h42.667v682.667h-42.667v42.667h-682.667v-42.667h-42.667v-682.667zM896-21.333h85.333v85.333h-85.333v-85.333zM896 832h85.333v85.333h-85.333v-85.333z" />
<glyph unicode="&#xe096;" d="M0 362.667v170.667h50.773q13.227 70.4 47.147 133.76t82.773 112.213 112.213 82.773 133.76 47.147v50.773h170.667v-50.773q142.507-26.453 245.973-129.92t129.92-245.973h50.773v-170.667h-50.773q-13.227-70.4-47.147-133.76t-82.773-112.213-112.213-82.773-133.76-47.147v-50.773h-170.667v50.773q-142.507 26.453-245.973 129.92t-129.92 245.973h-50.773zM42.667 405.333h85.333v85.333h-85.333v-85.333zM137.813 362.667q24.747-107.52 103.040-185.813t185.813-103.040v32.853h170.667v-32.853q107.52 24.747 185.813 103.040t103.040 185.813h-32.853v170.667h32.853q-24.747 107.52-103.040 185.813t-185.813 103.040v-32.853h-170.667v32.853q-107.52-24.747-185.813-103.040t-103.040-185.813h32.853v-170.667h-32.853zM469.333-21.333h85.333v85.333h-85.333v-85.333zM469.333 832h85.333v85.333h-85.333v-85.333zM896 405.333h85.333v85.333h-85.333v-85.333z" />
<glyph unicode="&#xe097;" d="M-42.667 490.667v170.667h130.133l339.2 244.907v96.427h170.667v-96.427l340.48-244.907h128.853v-170.667h-64l-125.44-384h18.773v-170.667h-170.667v42.667h-426.667v-42.667h-170.667v170.667h18.773l-125.867 384h-63.573zM0 533.333h85.333v85.333h-85.333v-85.333zM110.507 490.667l125.867-384h62.293v-42.667h426.667v42.667h62.293l125.44 384h-17.067v95.573l-341.333 245.76h-85.333l-341.333-246.613v-94.72h-17.493zM170.667-21.333h85.333v85.333h-85.333v-85.333zM469.333 874.667h85.333v85.333h-85.333v-85.333zM768-21.333h85.333v85.333h-85.333v-85.333zM938.667 533.333h85.333v85.333h-85.333v-85.333z" />
<glyph unicode="&#xe098;" d="M0-64v170.667h110.507l742.827 742.827v110.507h170.667v-170.667h-110.507l-742.827-742.827v-110.507h-170.667zM42.667-21.333h85.333v85.333h-85.333v-85.333zM896 832h85.333v85.333h-85.333v-85.333z" />
<glyph unicode="&#xe099;" d="M0-64v170.667h58.027q34.987 200.96 146.133 369.493t279.68 279.68 369.493 146.133v58.027h170.667v-170.667h-170.667v26.027q-133.12-25.6-252.16-89.6t-210.987-155.947-155.947-210.987-89.6-252.16h26.027v-170.667h-170.667zM42.667-21.333h85.333v85.333h-85.333v-85.333zM896 832h85.333v85.333h-85.333v-85.333z" />
<glyph unicode="&#xe100;" d="M0-64v170.667h42.667v256h-42.667v170.667h42.667v256h-42.667v170.667h170.667v-42.667h256v42.667h170.667v-42.667h256v42.667h170.667v-170.667h-42.667v-256h42.667v-170.667h-42.667v-256h42.667v-170.667h-170.667v42.667h-256v-42.667h-170.667v42.667h-256v-42.667h-170.667zM42.667-21.333h85.333v85.333h-85.333v-85.333zM42.667 405.333h85.333v85.333h-85.333v-85.333zM42.667 832h85.333v85.333h-85.333v-85.333zM128 106.667h42.667v-42.667h256v42.667h170.667v-42.667h256v42.667h42.667v256h-42.667v170.667h42.667v256h-42.667v42.667h-256v-42.667h-170.667v42.667h-256v-42.667h-42.667v-256h42.667v-170.667h-42.667v-256zM469.333-21.333h85.333v85.333h-85.333v-85.333zM469.333 832h85.333v85.333h-85.333v-85.333zM896-21.333h85.333v85.333h-85.333v-85.333zM896 405.333h85.333v85.333h-85.333v-85.333zM896 832h85.333v85.333h-85.333v-85.333z" />
<glyph unicode="&#xe101;" d="M0-21.333v54.187q46.080 19.627 68.693 42.24 10.24 10.24 20.693 25.6t16 25.6l5.547 10.24 326.827 823.467h76.373l314.88-816.64q16.64-41.387 49.067-75.52 14.507-15.36 29.653-24.107t23.253-9.6l7.68-1.28v-54.187h-341.333v54.187q22.187 0 38.613 10.667t23.467 26.667 8.747 34.987-5.547 35.627l-67.413 181.76h-320q-46.933-119.040-75.093-192-8.96-27.307-4.907-46.080t20.907-30.293 37.547-16.427 45.013-4.907v-54.187h-298.667zM296.533 405.333h278.613l-94.72 258.987-37.547 114.773zM725.333 533.333v25.6l39.68 19.627 160.427 381.44h34.56l155.307-382.293 36.693-19.627v-24.747h-170.667v24.747l46.933 21.333-32.427 85.333h-150.613l-38.827-85.76 46.933-20.053v-25.6h-128zM861.013 704h126.72l-43.093 119.467-17.067 51.627z" />
<glyph unicode="&#xe102;" d="M213.333-64v48.64q62.293 5.547 97.92 33.067t43.307 70.613l136.107 717.653q0.853 5.12 2.56 14.080 10.667 44.8 0.853 60.373t-67.413 30.933v48.64h342.613l0.853-48.64q-27.733-6.4-43.947-10.667t-30.933-10.667-21.76-12.373-13.653-17.067-9.6-22.827-6.4-31.787l-121.173-717.653q-6.827-39.253 16.64-68.267t58.027-35.413v-48.64h-384z" />
<glyph unicode="&#xe103;" d="M85.333-64v75.947q34.987 5.547 60.16 27.52t25.173 55.68v706.133q0 15.36-0.213 22.187t-1.28 17.28-2.987 14.72-6.187 11.093-10.027 9.813-15.36 7.68-21.12 7.893-28.16 7.040v61.013h467.627q48.64 0 97.707-19.2t89.6-53.12 66.133-85.973 25.6-112.213q0-34.133-10.453-64.64t-27.307-52.053-37.12-39.68-40.533-29.653-37.12-19.413-27.52-11.307l-10.24-3.413q5.12-1.28 13.867-3.84t34.133-12.8 48.64-23.253 51.413-35.84 48.427-49.28 34.133-65.067 13.867-82.133q0-52.907-22.187-97.493t-57.6-74.027-80.213-50.347-89.173-30.080-85.76-9.173h-465.92zM384 64h127.573q71.68 0 113.493 40.96t41.813 115.2q0 38.4-9.387 71.253t-28.16 58.667-49.28 40.533-69.76 14.72h-126.293v-341.333zM384 533.333h126.293q24.747 0 44.16 8.533t31.787 22.613 20.48 33.707 11.307 40.32 3.2 44.16q0 29.867-5.547 55.040t-17.707 47.147-34.56 34.56-53.12 12.587h-126.293v-298.667z" />
<glyph unicode="&#xe104;" d="M85.333-64v85.333h853.333v-85.333h-853.333zM85.333 746.667v213.333h853.333v-213.333h-42.667q0 62.293-34.773 95.147t-93.227 32.853h-170.667v-682.667q0-10.24 5.973-17.92t18.133-12.16 23.467-7.253 28.8-3.84 26.88-1.28 24.747-0.213v-42.667h-426.667v42.667q15.36 0 24.747 0.213t26.88 1.28 28.8 3.84 23.467 7.253 18.133 12.16 5.973 17.92v682.667h-170.667q-58.453 0-93.227-32.853t-34.773-95.147h-42.667z" />
<glyph unicode="&#xe105;" d="M85.333 448v85.333h341.333v341.333h-170.667q-58.453 0-93.227-32.853t-34.773-95.147h-42.667v213.333h853.333v-213.333h-42.667q0 62.293-34.773 95.147t-93.227 32.853h-170.667v-341.333h341.333v-85.333h-341.333v-341.333q0-10.24 5.973-17.92t18.133-12.16 23.467-7.253 28.8-3.84 26.88-1.28 24.747-0.213v-42.667h-426.667v42.667q15.36 0 24.747 0.213t26.88 1.28 28.8 3.84 23.467 7.253 18.133 12.16 5.973 17.92v341.333h-341.333z" />
<glyph unicode="&#xe106;" d="M-42.667 149.333h85.333v682.667h-85.333l106.667 142.080 106.667-142.080h-85.333v-682.667h85.333l-106.667-142.080zM213.333 746.667v213.333h853.333v-213.333h-42.667q0 62.293-34.773 95.147t-93.227 32.853h-170.667v-768q0-10.24 5.973-17.92t18.133-12.16 23.467-7.253 28.8-3.84 26.88-1.28 24.747-0.213v-42.667h-426.667v42.667q15.36 0 24.747 0.213t26.88 1.28 28.8 3.84 23.467 7.253 18.133 12.16 5.973 17.92v768h-170.667q-58.453 0-93.227-32.853t-34.773-95.147h-42.667z" />
<glyph unicode="&#xe107;" d="M71.253 42.667l142.080 106.667v-85.333h597.333v85.333l142.080-106.667-142.080-106.667v85.333h-597.333v-85.333zM85.333 746.667v213.333h853.333v-213.333h-42.667q0 62.293-34.773 95.147t-93.227 32.853h-170.667v-640q0-10.24 5.973-17.92t18.133-12.16 23.467-7.253 28.8-3.84 26.88-1.28 24.747-0.213v-42.667h-426.667v42.667q15.36 0 24.747 0.213t26.88 1.28 28.8 3.84 23.467 7.253 18.133 12.16 5.973 17.92v640h-170.667q-58.453 0-93.227-32.853t-34.773-95.147h-42.667z" />
<glyph unicode="&#xe108;" d="M-42.667-106.667v128h42.667v853.333h-42.667v128h128v-42.667h853.333v42.667h128v-128h-42.667v-853.333h42.667v-128h-128v42.667h-853.333v-42.667h-128zM0-64h42.667v42.667h-42.667v-42.667zM0 917.333h42.667v42.667h-42.667v-42.667zM42.667 21.333h42.667v-42.667h853.333v42.667h42.667v853.333h-42.667v42.667h-853.333v-42.667h-42.667v-853.333zM85.333 618.667v213.333h853.333v-213.333h-42.667q0 62.293-34.773 95.147t-93.227 32.853h-170.667v-597.333q0-10.24 5.973-17.92t18.133-12.16 23.467-7.253 28.8-3.84 26.88-1.28 24.747-0.213v-42.667h-426.667v42.667q15.36 0 24.747 0.213t26.88 1.28 28.8 3.84 23.467 7.253 18.133 12.16 5.973 17.92v597.333h-170.667q-58.453 0-93.227-32.853t-34.773-95.147h-42.667zM981.333-64h42.667v42.667h-42.667v-42.667zM981.333 917.333h42.667v42.667h-42.667v-42.667z" />
<glyph unicode="&#xe109;" d="M0 405.333v42.667h128v85.333l142.080-106.667-142.080-106.667v85.333h-128zM298.667-21.333v938.667h85.333v-938.667h-85.333zM426.667 85.333v85.333q0 8.533 6.187 14.933t15.147 6.4h554.667q8.96 0 15.147-6.4t6.187-14.933v-85.333q0-8.96-6.187-15.147t-15.147-6.187h-554.667q-8.96 0-15.147 6.187t-6.187 15.147zM426.667 298.667v85.333q0 8.96 6.187 15.147t15.147 6.187h341.333q8.96 0 15.147-6.187t6.187-15.147v-85.333q0-8.96-6.187-15.147t-15.147-6.187h-341.333q-8.96 0-15.147 6.187t-6.187 15.147zM426.667 512v85.333q0 8.96 6.187 15.147t15.147 6.187h469.333q8.96 0 15.147-6.187t6.187-15.147v-85.333q0-8.96-6.187-15.147t-15.147-6.187h-469.333q-8.96 0-15.147 6.187t-6.187 15.147zM426.667 725.333v85.333q0 8.96 6.187 15.147t15.147 6.187h256q8.96 0 15.147-6.187t6.187-15.147v-85.333q0-8.96-6.187-15.147t-15.147-6.187h-256q-8.96 0-15.147 6.187t-6.187 15.147z" />
<glyph unicode="&#xe110;" d="M0 85.333v85.333q0 8.96 6.187 15.147t15.147 6.187h554.667q8.96 0 15.147-6.187t6.187-15.147v-85.333q0-8.96-6.187-15.147t-15.147-6.187h-554.667q-8.96 0-15.147 6.187t-6.187 15.147zM0 298.667v85.333q0 8.96 6.187 15.147t15.147 6.187h341.333q8.96 0 15.147-6.187t6.187-15.147v-85.333q0-8.96-6.187-15.147t-15.147-6.187h-341.333q-8.96 0-15.147 6.187t-6.187 15.147zM0 512v85.333q0 8.96 6.187 15.147t15.147 6.187h469.333q8.96 0 15.147-6.187t6.187-15.147v-85.333q0-8.96-6.187-15.147t-15.147-6.187h-469.333q-8.96 0-15.147 6.187t-6.187 15.147zM0 725.333v85.333q0 8.96 6.187 15.147t15.147 6.187h256q8.96 0 15.147-6.187t6.187-15.147v-85.333q0-8.96-6.187-15.147t-15.147-6.187h-256q-8.96 0-15.147 6.187t-6.187 15.147zM640-21.333v938.667h85.333v-938.667h-85.333zM753.92 426.667l142.080 106.667v-85.333h128v-42.667h-128v-85.333z" />
</font>
</defs>
</svg>
