<?xml version="1.0" encoding="UTF-8"?><svg width="32px" height="32px" viewBox="0 0 32 32" version="1.1" xmlns="http://www.w3.org/2000/svg" xmlns:xlink="http://www.w3.org/1999/xlink"><g id="link" stroke="none" stroke-width="1" fill="none" fill-rule="evenodd"><path d="M10,19 C10.5522847,19 11,19.4477153 11,20 C11,20.5522847 10.5522847,21 10,21 L6,21 C3.790861,21 2,19.209139 2,17 L2,15 C2,12.790861 3.790861,11 6,11 L16,11 C18.209139,11 20,12.790861 20,15 L20,16 C20,16.5522847 19.5522847,17 19,17 C18.4477153,17 18,16.5522847 18,16 L18,15 C18,13.8954305 17.1045695,13 16,13 L6,13 C4.8954305,13 4,13.8954305 4,15 L4,17 C4,18.1045695 4.8954305,19 6,19 L10,19 Z M22,13 C21.4477153,13 21,12.5522847 21,12 C21,11.4477153 21.4477153,11 22,11 L26,11 C28.209139,11 30,12.790861 30,15 L30,17 C30,19.209139 28.209139,21 26,21 L16,21 C13.790861,21 12,19.209139 12,17 L12,16 C12,15.4477153 12.4477153,15 13,15 C13.5522847,15 14,15.4477153 14,16 L14,17 C14,18.1045695 14.8954305,19 16,19 L26,19 C27.1045695,19 28,18.1045695 28,17 L28,15 C28,13.8954305 27.1045695,13 26,13 L22,13 Z" id="Combined-Shape" fill="#000000" fill-rule="nonzero"></path></g></svg>
