<?xml version="1.0" encoding="UTF-8"?><svg width="22px" height="30px" viewBox="0 0 22 30" version="1.1" xmlns="http://www.w3.org/2000/svg" xmlns:xlink="http://www.w3.org/1999/xlink"><g id="Icons" stroke="none" stroke-width="1" fill="none" fill-rule="evenodd"><g id="trash" transform="translate(-5.000000, -1.000000)" fill="#000000" fill-rule="nonzero"><g><path d="M7,8 L6,8 C5.44771525,8 5,7.55228475 5,7 C5,6.44771525 5.44771525,6 6,6 L10.0505138,6 C10.3924592,2.75301644 12.461971,1 16,1 C19.538029,1 21.6075408,2.75301644 21.9494862,6 L26,6 C26.5522847,6 27,6.44771525 27,7 C27,7.55228475 26.5522847,8 26,8 L25,8 L25,29 C25,30.1045695 24.1045695,31 23,31 L9,31 C7.8954305,31 7,30.1045695 7,29 L7,8 Z M9,8 L9,29 L23,29 L23,8 L9,8 Z M12.0617224,6 L19.9382776,6 C19.6591254,3.92445489 18.4219113,3 16,3 C13.5780887,3 12.3408746,3.92445489 12.0617224,6 Z M15,12 C15,11.4477153 15.4477153,11 16,11 C16.5522847,11 17,11.4477153 17,12 L17,25 C17,25.5522847 16.5522847,26 16,26 C15.4477153,26 15,25.5522847 15,25 L15,12 Z M11,12 C11,11.4477153 11.4477153,11 12,11 C12.5522847,11 13,11.4477153 13,12 L13,25 C13,25.5522847 12.5522847,26 12,26 C11.4477153,26 11,25.5522847 11,25 L11,12 Z M19,12 C19,11.4477153 19.4477153,11 20,11 C20.5522847,11 21,11.4477153 21,12 L21,25 C21,25.5522847 20.5522847,26 20,26 C19.4477153,26 19,25.5522847 19,25 L19,12 Z"></path></g></g></g></svg>
