<?xml version="1.0" encoding="UTF-8"?><svg width="32px" height="32px" viewBox="0 0 32 32" version="1.1" xmlns="http://www.w3.org/2000/svg" xmlns:xlink="http://www.w3.org/1999/xlink"><g id="link-copy" stroke="none" stroke-width="1" fill="none" fill-rule="evenodd"><path d="M15,12.7731669 L15,5 C15,4.44771525 15.4477153,4 16,4 C16.5522847,4 17,4.44771525 17,5 L17,12.7731669 L19.8356362,10.2526014 C20.2484189,9.88568338 20.8804913,9.9228641 21.2474093,10.3356469 C21.6143273,10.7484296 21.5771466,11.380502 21.1643638,11.74742 L16.6643638,15.74742 C16.2854778,16.0842076 15.7145222,16.0842076 15.3356362,15.74742 L10.8356362,11.74742 C10.4228534,11.380502 10.3856727,10.7484296 10.7525907,10.3356469 C11.1195087,9.9228641 11.7515811,9.88568338 12.1643638,10.2526014 L15,12.7731669 Z M10,26 C10.5522847,26 11,26.4477153 11,27 C11,27.5522847 10.5522847,28 10,28 L6,28 C3.790861,28 2,26.209139 2,24 L2,22 C2,19.790861 3.790861,18 6,18 L16,18 C18.209139,18 20,19.790861 20,22 L20,23 C20,23.5522847 19.5522847,24 19,24 C18.4477153,24 18,23.5522847 18,23 L18,22 C18,20.8954305 17.1045695,20 16,20 L6,20 C4.8954305,20 4,20.8954305 4,22 L4,24 C4,25.1045695 4.8954305,26 6,26 L10,26 Z M22,20 C21.4477153,20 21,19.5522847 21,19 C21,18.4477153 21.4477153,18 22,18 L26,18 C28.209139,18 30,19.790861 30,22 L30,24 C30,26.209139 28.209139,28 26,28 L16,28 C13.790861,28 12,26.209139 12,24 L12,23 C12,22.4477153 12.4477153,22 13,22 C13.5522847,22 14,22.4477153 14,23 L14,24 C14,25.1045695 14.8954305,26 16,26 L26,26 C27.1045695,26 28,25.1045695 28,24 L28,22 C28,20.8954305 27.1045695,20 26,20 L22,20 Z" id="Combined-Shape" fill="#000000" fill-rule="nonzero"></path></g></svg>
