<?xml version="1.0" encoding="UTF-8" standalone="no"?>
<svg width="93px" height="69px" viewBox="0 0 93 69" version="1.1" xmlns="http://www.w3.org/2000/svg" xmlns:xlink="http://www.w3.org/1999/xlink">
    <!-- Generator: Sketch 49.3 (51167) - http://www.bohemiancoding.com/sketch -->
    <title>Desktop</title>
    <desc>Created with Sketch.</desc>
    <defs></defs>
    <g id="Desktop" stroke="none" stroke-width="1" fill="none" fill-rule="evenodd">
        <g id="logo" fill="#000000" fill-rule="nonzero">
            <path d="M92.5169913,39.2983803 C93.4453915,37.9081751 92.9811914,36.2862689 91.5885911,35.3594654 L69.7711872,20.2989084 C68.378587,19.3721049 67.2180868,17.5184979 66.9859868,15.8965917 L65.3612865,1.99453909 C65.1291864,0.372632952 63.7365862,-0.322469679 62.3439859,0.140932075 L1.9979752,19.140404 C0.373274908,19.6038058 -0.323025216,21.2257119 0.141174867,22.6159172 L11.7461769,54.5906382 C12.210377,55.9808435 14.0671773,57.6027496 15.4597776,57.8344505 L70.2353873,68.9560926 C71.8600876,69.1877935 73.716888,68.4926908 74.6452881,67.1024856 L92.5169913,39.2983803 Z M42.8475825,25.1646268 C41.9191823,26.3231312 39.8302819,27.2499347 38.2055816,26.7865329 L12.6745771,21.6891137 C11.0498768,21.4574128 11.0498768,20.7623101 12.6745771,20.2989084 L55.3809847,6.86025751 C57.005685,6.39685576 57.4698851,7.09195839 56.5414849,8.25046278 L42.8475825,25.1646268 Z M60.2550856,9.40896716 C61.1834857,8.25046278 62.1118859,8.48216365 62.3439859,9.87236892 L67.4501868,57.1393479 C67.6822869,58.761254 66.9859868,58.9929549 66.0575866,57.6027496 L46.3290831,31.8839522 C45.4006829,30.7254479 45.4006829,28.64014 46.3290831,27.4816356 L60.2550856,9.40896716 Z M6.17577594,26.5548321 C5.71157586,25.1646268 6.40787598,24.2378233 8.03257627,24.4695242 L37.9734816,30.7254479 C39.5981819,30.9571487 41.6870823,32.347354 42.6154824,33.5058584 L64.2007863,61.5416645 C65.1291864,62.7001689 64.6649863,63.6269724 63.0402861,63.1635707 L18.7091782,54.3589373 C17.0844779,54.1272365 15.4597776,52.5053303 14.9955775,51.1151251 L6.17577594,26.5548321 Z M68.378587,26.7865329 C68.146487,25.1646268 69.0748871,24.7012251 70.4674874,25.6280286 L86.2502902,36.5179698 C87.6428904,37.4447733 87.8749905,39.2983803 87.1786903,40.4568847 L73.948988,60.8465619 C73.0205878,62.2367672 72.3242877,62.0050663 72.0921877,60.3831601 L68.378587,26.7865329 Z" id="Shape"></path>
        </g>
    </g>
</svg>